# Blender 4.2.0
# www.blender.org
mtllib z_l.001.mtl
o z_l.002
v -0.501808 0.549170 -0.301862
v -0.501808 0.636346 -0.301862
v -0.497395 0.549170 -0.298024
v -0.497395 0.636346 -0.298024
v -0.491561 0.549170 -0.298430
v -0.491561 0.636346 -0.298430
v -0.487722 0.549170 -0.302842
v -0.487722 0.636346 -0.302842
v -0.488128 0.549170 -0.308677
v -0.488128 0.636346 -0.308677
v -0.492540 0.549170 -0.312515
v -0.492540 0.636346 -0.312515
v -0.498375 0.549170 -0.312109
v -0.498375 0.636346 -0.312109
v -0.502213 0.549170 -0.307697
v -0.502213 0.636346 -0.307697
v -0.502213 0.354960 -0.307697
v -0.502213 0.267785 -0.307697
v -0.498375 0.354960 -0.312109
v -0.498375 0.267785 -0.312109
v -0.492540 0.354960 -0.312515
v -0.492540 0.267785 -0.312515
v -0.488128 0.354960 -0.308677
v -0.488128 0.267785 -0.308677
v -0.487722 0.354960 -0.302842
v -0.487722 0.267785 -0.302842
v -0.491561 0.354960 -0.298430
v -0.491561 0.267785 -0.298430
v -0.497395 0.354960 -0.298024
v -0.497395 0.267785 -0.298024
v -0.501808 0.354960 -0.301862
v -0.501808 0.267785 -0.301862
v 0.501808 0.549170 -0.301862
v 0.501808 0.636346 -0.301862
v 0.497395 0.549170 -0.298024
v 0.497395 0.636346 -0.298024
v 0.491561 0.549170 -0.298430
v 0.491561 0.636346 -0.298430
v 0.487722 0.549170 -0.302842
v 0.487722 0.636346 -0.302842
v 0.488128 0.549170 -0.308677
v 0.488128 0.636346 -0.308677
v 0.492540 0.549170 -0.312515
v 0.492540 0.636346 -0.312515
v 0.498375 0.549170 -0.312109
v 0.498375 0.636346 -0.312109
v 0.502213 0.549170 -0.307697
v 0.502213 0.636346 -0.307697
v 0.502213 0.354960 -0.307697
v 0.502213 0.267785 -0.307697
v 0.498375 0.354960 -0.312109
v 0.498375 0.267785 -0.312109
v 0.492540 0.354960 -0.312515
v 0.492540 0.267785 -0.312515
v 0.488128 0.354960 -0.308677
v 0.488128 0.267785 -0.308677
v 0.487722 0.354960 -0.302842
v 0.487722 0.267785 -0.302842
v 0.491561 0.354960 -0.298430
v 0.491561 0.267785 -0.298430
v 0.497395 0.354960 -0.298024
v 0.497395 0.267785 -0.298024
v 0.501808 0.354960 -0.301862
v 0.501808 0.267785 -0.301862
v -0.501808 0.549171 0.301862
v -0.501808 0.636346 0.301862
v -0.497395 0.549171 0.298024
v -0.497395 0.636346 0.298024
v -0.491561 0.549171 0.298430
v -0.491561 0.636346 0.298430
v -0.487722 0.549171 0.302842
v -0.487722 0.636346 0.302842
v -0.488128 0.549171 0.308676
v -0.488128 0.636346 0.308676
v -0.492540 0.549171 0.312515
v -0.492540 0.636346 0.312515
v -0.498375 0.549171 0.312109
v -0.498375 0.636346 0.312109
v -0.502213 0.549171 0.307697
v -0.502213 0.636346 0.307697
v -0.502213 0.354961 0.307697
v -0.502213 0.267785 0.307697
v -0.498375 0.354961 0.312109
v -0.498375 0.267785 0.312109
v -0.492540 0.354961 0.312515
v -0.492540 0.267785 0.312515
v -0.488128 0.354961 0.308677
v -0.488128 0.267785 0.308677
v -0.487722 0.354961 0.302842
v -0.487722 0.267785 0.302842
v -0.491561 0.354961 0.298430
v -0.491561 0.267785 0.298430
v -0.497395 0.354961 0.298024
v -0.497395 0.267785 0.298024
v -0.501808 0.354961 0.301862
v -0.501808 0.267785 0.301862
v 0.501808 0.549171 0.301862
v 0.501808 0.636346 0.301862
v 0.497395 0.549171 0.298024
v 0.497395 0.636346 0.298024
v 0.491561 0.549171 0.298430
v 0.491561 0.636346 0.298430
v 0.487722 0.549171 0.302842
v 0.487722 0.636346 0.302842
v 0.488128 0.549171 0.308676
v 0.488128 0.636346 0.308676
v 0.492540 0.549171 0.312515
v 0.492540 0.636346 0.312515
v 0.498375 0.549171 0.312109
v 0.498375 0.636346 0.312109
v 0.502213 0.549171 0.307697
v 0.502213 0.636346 0.307697
v 0.502213 0.354961 0.307697
v 0.502213 0.267785 0.307697
v 0.498375 0.354961 0.312109
v 0.498375 0.267785 0.312109
v 0.492540 0.354961 0.312515
v 0.492540 0.267785 0.312515
v 0.488128 0.354961 0.308677
v 0.488128 0.267785 0.308677
v 0.487722 0.354961 0.302842
v 0.487722 0.267785 0.302842
v 0.491561 0.354961 0.298430
v 0.491561 0.267785 0.298430
v 0.497395 0.354961 0.298024
v 0.497395 0.267785 0.298024
v 0.501808 0.354961 0.301862
v 0.501808 0.267785 0.301862
v -0.518011 0.000000 0.297400
v -0.518011 0.743455 0.297400
v -0.016261 0.000000 0.297400
v -0.016261 0.743455 0.297400
v -0.016261 0.039852 0.297400
v -0.482247 0.039852 0.297400
v -0.482247 0.743455 0.297400
v -0.518011 0.702455 0.297400
v -0.016261 0.702455 0.297400
v -0.482247 0.702455 0.297400
v -0.518011 0.743455 0.257920
v -0.077817 0.714400 0.196364
v -0.016261 0.000000 0.257920
v -0.518011 0.039852 0.257920
v -0.420691 0.714400 0.196364
v -0.482247 0.000000 0.257920
v -0.518011 0.702455 0.257920
v -0.482247 0.743455 0.257920
v -0.016261 0.743455 0.257920
v -0.457281 0.743455 0.232954
v -0.041227 0.743455 0.232954
v -0.482247 0.039852 0.257920
v -0.482247 0.702455 0.257920
v -0.016261 0.702455 0.257920
v -0.016261 0.039852 0.257920
v -0.077817 0.162712 0.196364
v -0.420691 0.162712 0.196364
v -0.518011 1.103021 0.297400
v -0.482247 1.063319 0.297400
v -0.518011 1.063319 0.257920
v -0.482247 1.063319 0.257920
v -0.016261 1.063319 0.297400
v 0.016261 1.063319 0.297400
v -0.492613 0.743455 0.257920
v -0.511777 0.743455 0.257920
v -0.492613 1.063319 0.257920
v -0.511777 1.063319 0.257920
v -0.482247 1.103021 0.257920
v -0.016261 1.103021 0.297400
v -0.016261 1.063319 0.257920
v -0.016261 1.103021 0.257920
v -0.482247 0.014167 0.257920
v 0.518011 0.000000 0.297400
v 0.518011 0.743455 0.297400
v 0.016261 0.000000 0.297400
v 0.016261 0.743455 0.297400
v 0.016261 0.039852 0.297400
v 0.482247 0.039852 0.297400
v 0.482247 0.743455 0.297400
v 0.518011 0.702455 0.297400
v 0.016261 0.702455 0.297400
v 0.482247 0.702455 0.297400
v 0.518011 0.743455 0.257920
v 0.077817 0.714400 0.196364
v 0.016261 0.000000 0.257920
v 0.518011 0.039852 0.257920
v 0.420691 0.714400 0.196364
v 0.482247 0.000000 0.257920
v 0.518011 0.702455 0.257920
v 0.482247 0.743455 0.257920
v 0.016261 0.743455 0.257920
v 0.457281 0.743455 0.232954
v 0.041227 0.743455 0.232954
v 0.482247 0.039852 0.257920
v 0.482247 0.702455 0.257920
v 0.016261 0.702455 0.257920
v 0.016261 0.039852 0.257920
v 0.077817 0.162712 0.196364
v 0.420691 0.162712 0.196364
v 0.518011 1.103021 0.297400
v 0.482247 1.063319 0.297400
v 0.518011 1.063319 0.257920
v 0.482247 1.063319 0.257920
v 0.016261 1.063319 0.297400
v -0.016261 1.063319 0.297400
v 0.492613 0.743455 0.257920
v 0.511777 0.743455 0.257920
v 0.492613 1.063319 0.257920
v 0.511777 1.063319 0.257920
v 0.482247 1.103021 0.257920
v 0.016261 1.103021 0.297400
v 0.016261 1.063319 0.257920
v 0.016261 1.103021 0.257920
v 0.482247 0.014167 0.257920
v -0.518011 -0.000000 -0.297400
v -0.518011 0.743455 -0.297400
v -0.016261 -0.000000 -0.297400
v -0.016261 0.743455 -0.297400
v -0.016261 0.039852 -0.297400
v -0.482247 0.039852 -0.297400
v -0.482247 0.743455 -0.297400
v -0.518011 0.702455 -0.297400
v -0.016261 0.702455 -0.297400
v -0.482247 0.702455 -0.297400
v -0.518011 0.743455 -0.257920
v -0.077817 0.714400 -0.196364
v -0.016261 -0.000000 -0.257920
v -0.518011 0.039852 -0.257920
v -0.420691 0.714400 -0.196364
v -0.482247 -0.000000 -0.257920
v -0.518011 0.702455 -0.257920
v -0.482247 0.743455 -0.257920
v -0.016261 0.743455 -0.257920
v -0.457281 0.743455 -0.232954
v -0.041227 0.743455 -0.232954
v -0.482247 0.039852 -0.257920
v -0.482247 0.702455 -0.257920
v -0.016261 0.702455 -0.257920
v -0.016261 0.039852 -0.257920
v -0.077817 0.162712 -0.196364
v -0.420691 0.162712 -0.196364
v -0.518011 1.103021 -0.297400
v -0.482247 1.063319 -0.297400
v -0.518011 1.063319 -0.257920
v -0.482247 1.063319 -0.257920
v -0.016261 1.063319 -0.297400
v 0.016261 1.063319 -0.297400
v -0.492613 0.743455 -0.257920
v -0.511777 0.743455 -0.257920
v -0.492613 1.063319 -0.257920
v -0.511777 1.063319 -0.257920
v -0.482247 1.103021 -0.257920
v -0.016261 1.103021 -0.297400
v -0.016261 1.063319 -0.257920
v -0.016261 1.103021 -0.257920
v -0.482247 0.014167 -0.257920
v 0.518011 -0.000000 -0.297400
v 0.518011 0.743455 -0.297400
v 0.016261 -0.000000 -0.297400
v 0.016261 0.743455 -0.297400
v 0.016261 0.039852 -0.297400
v 0.482247 0.039852 -0.297400
v 0.482247 0.743455 -0.297400
v 0.518011 0.702455 -0.297400
v 0.016261 0.702455 -0.297400
v 0.482247 0.702455 -0.297400
v 0.518011 0.743455 -0.257920
v 0.077817 0.714400 -0.196364
v 0.016261 -0.000000 -0.257920
v 0.518011 0.039852 -0.257920
v 0.420691 0.714400 -0.196364
v 0.482247 -0.000000 -0.257920
v 0.518011 0.702455 -0.257920
v 0.482247 0.743455 -0.257920
v 0.016261 0.743455 -0.257920
v 0.457281 0.743455 -0.232954
v 0.041227 0.743455 -0.232954
v 0.482247 0.039852 -0.257920
v 0.482247 0.702455 -0.257920
v 0.016261 0.702455 -0.257920
v 0.016261 0.039852 -0.257920
v 0.077817 0.162712 -0.196364
v 0.420691 0.162712 -0.196364
v 0.518011 1.103021 -0.297400
v 0.482247 1.063319 -0.297400
v 0.518011 1.063319 -0.257920
v 0.482247 1.063319 -0.257920
v 0.016261 1.063319 -0.297400
v -0.016261 1.063319 -0.297400
v 0.492613 0.743455 -0.257920
v 0.511777 0.743455 -0.257920
v 0.492613 1.063319 -0.257920
v 0.511777 1.063319 -0.257920
v 0.482247 1.103021 -0.257920
v 0.016261 1.103021 -0.297400
v 0.016261 1.063319 -0.257920
v 0.016261 1.103021 -0.257920
v 0.482247 0.014167 -0.257920
v -0.486937 0.032513 0.319614
v -0.486937 0.728815 0.319613
v -0.486937 0.032513 0.299865
v -0.486937 0.728815 0.299865
v -0.006519 0.032513 0.319614
v -0.006519 0.728815 0.319613
v -0.006519 0.032513 0.299865
v -0.006519 0.728815 0.299865
v -0.126623 0.032513 0.299865
v -0.246728 0.032513 0.299865
v -0.366832 0.032513 0.299865
v -0.366832 0.728815 0.299865
v -0.246728 0.728815 0.299865
v -0.126623 0.728815 0.299865
v -0.366832 0.032513 0.319614
v -0.246728 0.032513 0.319614
v -0.126623 0.032513 0.319614
v -0.126623 0.728815 0.319613
v -0.246728 0.728815 0.319613
v -0.366832 0.728815 0.319613
v -0.387686 0.022390 0.299865
v -0.466083 0.022390 0.299865
v -0.412537 0.015425 0.299865
v -0.441232 0.015425 0.299865
v -0.466404 0.728815 0.319613
v -0.387365 0.728815 0.319613
v -0.440058 0.728815 0.319613
v -0.413711 0.728815 0.319613
v -0.466404 0.728815 0.299865
v -0.387365 0.728815 0.299865
v -0.440058 0.728815 0.299865
v -0.413711 0.728815 0.299865
v -0.387686 0.022390 0.319614
v -0.466083 0.022390 0.319614
v -0.412537 0.015425 0.319614
v -0.441232 0.015425 0.319614
v -0.267581 0.022390 0.299865
v -0.345979 0.022390 0.299865
v -0.292432 0.015425 0.299865
v -0.321128 0.015425 0.299865
v -0.346300 0.728815 0.299865
v -0.267260 0.728815 0.299865
v -0.319953 0.728815 0.299865
v -0.293607 0.728815 0.299865
v -0.345979 0.022390 0.319614
v -0.267581 0.022390 0.319614
v -0.321128 0.015425 0.319614
v -0.292432 0.015425 0.319614
v -0.267260 0.728815 0.319613
v -0.346300 0.728815 0.319613
v -0.293607 0.728815 0.319613
v -0.319953 0.728815 0.319613
v -0.147477 0.022390 0.299865
v -0.225874 0.022390 0.299865
v -0.172328 0.015425 0.299865
v -0.201023 0.015425 0.299865
v -0.226195 0.728815 0.299865
v -0.147156 0.728815 0.299865
v -0.199849 0.728815 0.299865
v -0.173502 0.728815 0.299865
v -0.225874 0.022390 0.319614
v -0.147477 0.022390 0.319614
v -0.201023 0.015425 0.319614
v -0.172328 0.015425 0.319614
v -0.147156 0.728815 0.319613
v -0.226195 0.728815 0.319613
v -0.173502 0.728815 0.319613
v -0.199849 0.728815 0.319613
v -0.027051 0.728815 0.299865
v -0.106090 0.728815 0.299865
v -0.053398 0.728815 0.299865
v -0.079744 0.728815 0.299865
v -0.105770 0.022390 0.319614
v -0.027372 0.022390 0.319614
v -0.080919 0.015425 0.319614
v -0.052223 0.015425 0.319614
v -0.105770 0.022390 0.299865
v -0.027372 0.022390 0.299865
v -0.080919 0.015425 0.299865
v -0.052223 0.015425 0.299865
v -0.027051 0.728815 0.319613
v -0.106090 0.728815 0.319613
v -0.053398 0.728815 0.319613
v -0.079744 0.728815 0.319613
v -0.520880 0.032513 0.264666
v -0.520880 1.106689 0.264666
v -0.538393 0.032513 0.264666
v -0.538393 1.106689 0.264666
v -0.520880 0.032513 -0.262969
v -0.520880 1.106689 -0.262969
v -0.538393 0.032513 -0.262969
v -0.538393 1.106689 -0.262969
v -0.538393 0.032513 -0.131060
v -0.538393 0.032513 0.000849
v -0.538393 0.032513 0.132758
v -0.538393 1.106689 0.132757
v -0.538393 1.106689 0.000849
v -0.538393 1.106689 -0.131060
v -0.520880 0.032513 0.132758
v -0.520880 0.032513 0.000849
v -0.520880 0.032513 -0.131060
v -0.538393 0.022390 0.155661
v -0.538393 0.022390 0.241763
v -0.538393 0.015425 0.182954
v -0.538393 0.015425 0.214470
v -0.538393 1.106689 0.242116
v -0.538393 1.106689 0.155308
v -0.538393 1.106689 0.213180
v -0.538393 1.106689 0.184244
v -0.520880 0.022390 0.155661
v -0.520880 0.022390 0.241763
v -0.520880 0.015425 0.182954
v -0.520880 0.015425 0.214470
v -0.538393 0.022390 0.023752
v -0.538393 0.022390 0.109854
v -0.538393 0.015425 0.051045
v -0.538393 0.015425 0.082561
v -0.538393 1.106689 0.110207
v -0.538393 1.106689 0.023399
v -0.538393 1.106689 0.081271
v -0.538393 1.106689 0.052335
v -0.520880 0.022390 0.109854
v -0.520880 0.022390 0.023752
v -0.520880 0.015425 0.082561
v -0.520880 0.015425 0.051045
v -0.538393 0.022390 -0.108157
v -0.538393 0.022390 -0.022054
v -0.538393 0.015425 -0.080864
v -0.538393 0.015425 -0.049348
v -0.538393 1.106689 -0.021702
v -0.538393 1.106689 -0.108510
v -0.538393 1.106689 -0.050638
v -0.538393 1.106689 -0.079574
v -0.520880 0.022390 -0.022054
v -0.520880 0.022390 -0.108157
v -0.520880 0.015425 -0.049348
v -0.520880 0.015425 -0.080864
v -0.538393 1.106689 -0.240418
v -0.538393 1.106689 -0.153611
v -0.538393 1.106689 -0.211483
v -0.538393 1.106689 -0.182547
v -0.520880 0.022390 -0.153963
v -0.520880 0.022390 -0.240066
v -0.520880 0.015425 -0.181257
v -0.520880 0.015425 -0.212772
v -0.538393 0.022390 -0.153963
v -0.538393 0.022390 -0.240066
v -0.538393 0.015425 -0.181257
v -0.538393 0.015425 -0.212772
v -0.486937 0.032513 -0.299056
v -0.486937 0.728815 -0.299056
v -0.486937 0.032513 -0.318804
v -0.486937 0.728815 -0.318804
v -0.006519 0.032513 -0.299056
v -0.006519 0.728815 -0.299056
v -0.006519 0.032513 -0.318804
v -0.006519 0.728815 -0.318804
v -0.126623 0.032513 -0.318804
v -0.246728 0.032513 -0.318804
v -0.366832 0.032513 -0.318804
v -0.366832 0.728815 -0.318804
v -0.246728 0.728815 -0.318804
v -0.126623 0.728815 -0.318804
v -0.366832 0.032513 -0.299056
v -0.246728 0.032513 -0.299056
v -0.126623 0.032513 -0.299056
v -0.126623 0.728815 -0.299056
v -0.246728 0.728815 -0.299056
v -0.366832 0.728815 -0.299056
v -0.387686 0.022390 -0.318804
v -0.466083 0.022390 -0.318804
v -0.412537 0.015425 -0.318804
v -0.441232 0.015425 -0.318804
v -0.466404 0.728815 -0.299056
v -0.387365 0.728815 -0.299056
v -0.440058 0.728815 -0.299056
v -0.413711 0.728815 -0.299056
v -0.466404 0.728815 -0.318804
v -0.387365 0.728815 -0.318804
v -0.440058 0.728815 -0.318804
v -0.413711 0.728815 -0.318804
v -0.387686 0.022390 -0.299056
v -0.466083 0.022390 -0.299056
v -0.412537 0.015425 -0.299056
v -0.441232 0.015425 -0.299056
v -0.267581 0.022390 -0.318804
v -0.345979 0.022390 -0.318804
v -0.292432 0.015425 -0.318804
v -0.321128 0.015425 -0.318804
v -0.346300 0.728815 -0.318804
v -0.267260 0.728815 -0.318804
v -0.319953 0.728815 -0.318804
v -0.293607 0.728815 -0.318804
v -0.345979 0.022390 -0.299056
v -0.267581 0.022390 -0.299056
v -0.321128 0.015425 -0.299056
v -0.292432 0.015425 -0.299056
v -0.267260 0.728815 -0.299056
v -0.346300 0.728815 -0.299056
v -0.293607 0.728815 -0.299056
v -0.319953 0.728815 -0.299056
v -0.147477 0.022390 -0.318804
v -0.225874 0.022390 -0.318804
v -0.172328 0.015425 -0.318804
v -0.201023 0.015425 -0.318804
v -0.226195 0.728815 -0.318804
v -0.147156 0.728815 -0.318804
v -0.199849 0.728815 -0.318804
v -0.173502 0.728815 -0.318804
v -0.225874 0.022390 -0.299056
v -0.147477 0.022390 -0.299056
v -0.201023 0.015425 -0.299056
v -0.172328 0.015425 -0.299056
v -0.147156 0.728815 -0.299056
v -0.226195 0.728815 -0.299056
v -0.173502 0.728815 -0.299056
v -0.199849 0.728815 -0.299056
v -0.027051 0.728815 -0.318804
v -0.106090 0.728815 -0.318804
v -0.053398 0.728815 -0.318804
v -0.079744 0.728815 -0.318804
v -0.105770 0.022390 -0.299056
v -0.027372 0.022390 -0.299056
v -0.080919 0.015425 -0.299056
v -0.052223 0.015425 -0.299056
v -0.105770 0.022390 -0.318804
v -0.027372 0.022390 -0.318804
v -0.080919 0.015425 -0.318804
v -0.052223 0.015425 -0.318804
v -0.027051 0.728815 -0.299056
v -0.106090 0.728815 -0.299056
v -0.053398 0.728815 -0.299056
v -0.079744 0.728815 -0.299056
v 0.486937 0.032513 0.319614
v 0.486937 0.728815 0.319613
v 0.486937 0.032513 0.299865
v 0.486937 0.728815 0.299865
v 0.006519 0.032513 0.319614
v 0.006519 0.728815 0.319613
v 0.006519 0.032513 0.299865
v 0.006519 0.728815 0.299865
v 0.126623 0.032513 0.299865
v 0.246728 0.032513 0.299865
v 0.366832 0.032513 0.299865
v 0.366832 0.728815 0.299865
v 0.246728 0.728815 0.299865
v 0.126623 0.728815 0.299865
v 0.366832 0.032513 0.319614
v 0.246728 0.032513 0.319614
v 0.126623 0.032513 0.319614
v 0.126623 0.728815 0.319613
v 0.246728 0.728815 0.319613
v 0.366832 0.728815 0.319613
v 0.387686 0.022390 0.299865
v 0.466083 0.022390 0.299865
v 0.412537 0.015425 0.299865
v 0.441232 0.015425 0.299865
v 0.466404 0.728815 0.319613
v 0.387365 0.728815 0.319613
v 0.440058 0.728815 0.319613
v 0.413711 0.728815 0.319613
v 0.466404 0.728815 0.299865
v 0.387365 0.728815 0.299865
v 0.440058 0.728815 0.299865
v 0.413711 0.728815 0.299865
v 0.387686 0.022390 0.319614
v 0.466083 0.022390 0.319614
v 0.412537 0.015425 0.319614
v 0.441232 0.015425 0.319614
v 0.267581 0.022390 0.299865
v 0.345979 0.022390 0.299865
v 0.292432 0.015425 0.299865
v 0.321128 0.015425 0.299865
v 0.346300 0.728815 0.299865
v 0.267260 0.728815 0.299865
v 0.319953 0.728815 0.299865
v 0.293607 0.728815 0.299865
v 0.345979 0.022390 0.319614
v 0.267581 0.022390 0.319614
v 0.321128 0.015425 0.319614
v 0.292432 0.015425 0.319614
v 0.267260 0.728815 0.319613
v 0.346300 0.728815 0.319613
v 0.293607 0.728815 0.319613
v 0.319953 0.728815 0.319613
v 0.147477 0.022390 0.299865
v 0.225874 0.022390 0.299865
v 0.172328 0.015425 0.299865
v 0.201023 0.015425 0.299865
v 0.226195 0.728815 0.299865
v 0.147156 0.728815 0.299865
v 0.199849 0.728815 0.299865
v 0.173502 0.728815 0.299865
v 0.225874 0.022390 0.319614
v 0.147477 0.022390 0.319614
v 0.201023 0.015425 0.319614
v 0.172328 0.015425 0.319614
v 0.147156 0.728815 0.319613
v 0.226195 0.728815 0.319613
v 0.173502 0.728815 0.319613
v 0.199849 0.728815 0.319613
v 0.027051 0.728815 0.299865
v 0.106090 0.728815 0.299865
v 0.053398 0.728815 0.299865
v 0.079744 0.728815 0.299865
v 0.105770 0.022390 0.319614
v 0.027372 0.022390 0.319614
v 0.080919 0.015425 0.319614
v 0.052223 0.015425 0.319614
v 0.105770 0.022390 0.299865
v 0.027372 0.022390 0.299865
v 0.080919 0.015425 0.299865
v 0.052223 0.015425 0.299865
v 0.027051 0.728815 0.319613
v 0.106090 0.728815 0.319613
v 0.053398 0.728815 0.319613
v 0.079744 0.728815 0.319613
v 0.520880 0.032513 0.264666
v 0.520880 1.106689 0.264666
v 0.538393 0.032513 0.264666
v 0.538393 1.106689 0.264666
v 0.520880 0.032513 -0.262969
v 0.520880 1.106689 -0.262969
v 0.538393 0.032513 -0.262969
v 0.538393 1.106689 -0.262969
v 0.538393 0.032513 -0.131060
v 0.538393 0.032513 0.000849
v 0.538393 0.032513 0.132758
v 0.538393 1.106689 0.132757
v 0.538393 1.106689 0.000849
v 0.538393 1.106689 -0.131060
v 0.520880 0.032513 0.132758
v 0.520880 0.032513 0.000849
v 0.520880 0.032513 -0.131060
v 0.538393 0.022390 0.155661
v 0.538393 0.022390 0.241763
v 0.538393 0.015425 0.182954
v 0.538393 0.015425 0.214470
v 0.538393 1.106689 0.242116
v 0.538393 1.106689 0.155308
v 0.538393 1.106689 0.213180
v 0.538393 1.106689 0.184244
v 0.520880 0.022390 0.155661
v 0.520880 0.022390 0.241763
v 0.520880 0.015425 0.182954
v 0.520880 0.015425 0.214470
v 0.538393 0.022390 0.023752
v 0.538393 0.022390 0.109854
v 0.538393 0.015425 0.051045
v 0.538393 0.015425 0.082561
v 0.538393 1.106689 0.110207
v 0.538393 1.106689 0.023399
v 0.538393 1.106689 0.081271
v 0.538393 1.106689 0.052335
v 0.520880 0.022390 0.109854
v 0.520880 0.022390 0.023752
v 0.520880 0.015425 0.082561
v 0.520880 0.015425 0.051045
v 0.538393 0.022390 -0.108157
v 0.538393 0.022390 -0.022054
v 0.538393 0.015425 -0.080864
v 0.538393 0.015425 -0.049348
v 0.538393 1.106689 -0.021702
v 0.538393 1.106689 -0.108510
v 0.538393 1.106689 -0.050638
v 0.538393 1.106689 -0.079574
v 0.520880 0.022390 -0.022054
v 0.520880 0.022390 -0.108157
v 0.520880 0.015425 -0.049348
v 0.520880 0.015425 -0.080864
v 0.538393 1.106689 -0.240418
v 0.538393 1.106689 -0.153611
v 0.538393 1.106689 -0.211483
v 0.538393 1.106689 -0.182547
v 0.520880 0.022390 -0.153963
v 0.520880 0.022390 -0.240066
v 0.520880 0.015425 -0.181257
v 0.520880 0.015425 -0.212772
v 0.538393 0.022390 -0.153963
v 0.538393 0.022390 -0.240066
v 0.538393 0.015425 -0.181257
v 0.538393 0.015425 -0.212772
v 0.486937 0.032513 -0.299056
v 0.486937 0.728815 -0.299056
v 0.486937 0.032513 -0.318804
v 0.486937 0.728815 -0.318804
v 0.006519 0.032513 -0.299056
v 0.006519 0.728815 -0.299056
v 0.006519 0.032513 -0.318804
v 0.006519 0.728815 -0.318804
v 0.126623 0.032513 -0.318804
v 0.246728 0.032513 -0.318804
v 0.366832 0.032513 -0.318804
v 0.366832 0.728815 -0.318804
v 0.246728 0.728815 -0.318804
v 0.126623 0.728815 -0.318804
v 0.366832 0.032513 -0.299056
v 0.246728 0.032513 -0.299056
v 0.126623 0.032513 -0.299056
v 0.126623 0.728815 -0.299056
v 0.246728 0.728815 -0.299056
v 0.366832 0.728815 -0.299056
v 0.387686 0.022390 -0.318804
v 0.466083 0.022390 -0.318804
v 0.412537 0.015425 -0.318804
v 0.441232 0.015425 -0.318804
v 0.466404 0.728815 -0.299056
v 0.387365 0.728815 -0.299056
v 0.440058 0.728815 -0.299056
v 0.413711 0.728815 -0.299056
v 0.466404 0.728815 -0.318804
v 0.387365 0.728815 -0.318804
v 0.440058 0.728815 -0.318804
v 0.413711 0.728815 -0.318804
v 0.387686 0.022390 -0.299056
v 0.466083 0.022390 -0.299056
v 0.412537 0.015425 -0.299056
v 0.441232 0.015425 -0.299056
v 0.267581 0.022390 -0.318804
v 0.345979 0.022390 -0.318804
v 0.292432 0.015425 -0.318804
v 0.321128 0.015425 -0.318804
v 0.346300 0.728815 -0.318804
v 0.267260 0.728815 -0.318804
v 0.319953 0.728815 -0.318804
v 0.293607 0.728815 -0.318804
v 0.345979 0.022390 -0.299056
v 0.267581 0.022390 -0.299056
v 0.321128 0.015425 -0.299056
v 0.292432 0.015425 -0.299056
v 0.267260 0.728815 -0.299056
v 0.346300 0.728815 -0.299056
v 0.293607 0.728815 -0.299056
v 0.319953 0.728815 -0.299056
v 0.147477 0.022390 -0.318804
v 0.225874 0.022390 -0.318804
v 0.172328 0.015425 -0.318804
v 0.201023 0.015425 -0.318804
v 0.226195 0.728815 -0.318804
v 0.147156 0.728815 -0.318804
v 0.199849 0.728815 -0.318804
v 0.173502 0.728815 -0.318804
v 0.225874 0.022390 -0.299056
v 0.147477 0.022390 -0.299056
v 0.201023 0.015425 -0.299056
v 0.172328 0.015425 -0.299056
v 0.147156 0.728815 -0.299056
v 0.226195 0.728815 -0.299056
v 0.173502 0.728815 -0.299056
v 0.199849 0.728815 -0.299056
v 0.027051 0.728815 -0.318804
v 0.106090 0.728815 -0.318804
v 0.053398 0.728815 -0.318804
v 0.079744 0.728815 -0.318804
v 0.105770 0.022390 -0.299056
v 0.027372 0.022390 -0.299056
v 0.080919 0.015425 -0.299056
v 0.052223 0.015425 -0.299056
v 0.105770 0.022390 -0.318804
v 0.027372 0.022390 -0.318804
v 0.080919 0.015425 -0.318804
v 0.052223 0.015425 -0.318804
v 0.027051 0.728815 -0.299056
v 0.106090 0.728815 -0.299056
v 0.053398 0.728815 -0.299056
v 0.079744 0.728815 -0.299056
v -0.596750 1.088465 0.381731
v -0.596750 1.119894 0.381731
v -0.596750 1.088464 -0.381731
v -0.596750 1.119894 -0.381731
v 0.596750 1.088465 0.381731
v 0.596750 1.119894 0.381731
v 0.596750 1.088464 -0.381731
v 0.596750 1.119894 -0.381731
v -0.596750 1.121129 -0.229039
v -0.596750 1.140857 -0.076346
v -0.596750 1.140857 0.076346
v -0.596750 1.121129 0.229038
v -0.596750 1.152559 0.229038
v -0.596750 1.172287 0.076346
v -0.596750 1.172287 -0.076346
v -0.596750 1.152559 -0.229039
v 0.596750 1.121129 0.229038
v 0.596750 1.140857 0.076346
v 0.596750 1.140857 -0.076346
v 0.596750 1.121129 -0.229039
v 0.596750 1.152559 -0.229039
v 0.596750 1.172287 -0.076346
v 0.596750 1.172287 0.076346
v 0.596750 1.152559 0.229038
v 0.616673 1.093011 -0.360479
v 0.616673 1.116583 -0.250290
v 0.632507 1.098418 -0.335202
v 0.638067 1.104797 -0.305385
v 0.632507 1.111176 -0.275568
v 0.616467 1.155276 0.208007
v 0.616467 1.169570 0.097377
v 0.632364 1.158555 0.182628
v 0.637946 1.162423 0.152692
v 0.632364 1.166291 0.122756
v 0.616467 1.169570 -0.097378
v 0.616467 1.155276 -0.208007
v 0.632364 1.166291 -0.122756
v 0.637946 1.162423 -0.152692
v 0.632364 1.158555 -0.182629
v 0.616348 1.172287 0.055441
v 0.616348 1.172287 -0.055441
v 0.632282 1.172287 0.030004
v 0.637877 1.172287 -0.000000
v 0.632282 1.172287 -0.030005
v 0.616467 1.138140 0.097377
v 0.616467 1.123847 0.208007
v 0.632364 1.134861 0.122756
v 0.637946 1.130993 0.152692
v 0.632364 1.127126 0.182628
v 0.616673 1.148013 -0.250290
v 0.616673 1.124440 -0.360479
v 0.632507 1.142605 -0.275568
v 0.638068 1.136226 -0.305385
v 0.632507 1.129848 -0.335202
v 0.616348 1.140857 -0.055441
v 0.616348 1.140857 0.055441
v 0.632282 1.140857 -0.030005
v 0.637877 1.140857 -0.000000
v 0.632282 1.140857 0.030004
v 0.616467 1.123847 -0.208007
v 0.616467 1.138140 -0.097378
v 0.632364 1.127126 -0.182629
v 0.637946 1.130993 -0.152692
v 0.632364 1.134861 -0.122756
v -0.616467 1.169570 0.097377
v -0.616467 1.155276 0.208007
v -0.632364 1.166291 0.122756
v -0.637946 1.162423 0.152692
v -0.632364 1.158555 0.182628
v -0.616673 1.124440 -0.360479
v -0.616673 1.148013 -0.250290
v -0.632507 1.129848 -0.335202
v -0.638068 1.136226 -0.305385
v -0.632507 1.142605 -0.275568
v -0.616348 1.172287 -0.055441
v -0.616348 1.172287 0.055441
v -0.632282 1.172287 -0.030005
v -0.637877 1.172287 -0.000000
v -0.632282 1.172287 0.030004
v -0.616467 1.155276 -0.208007
v -0.616467 1.169570 -0.097378
v -0.632364 1.158555 -0.182629
v -0.637946 1.162423 -0.152692
v -0.632364 1.166291 -0.122756
v -0.616673 1.116583 -0.250290
v -0.616673 1.093011 -0.360479
v -0.632507 1.111176 -0.275568
v -0.638067 1.104797 -0.305385
v -0.632507 1.098418 -0.335202
v -0.616467 1.123847 0.208007
v -0.616467 1.138140 0.097377
v -0.632364 1.127126 0.182628
v -0.637946 1.130993 0.152692
v -0.632364 1.134861 0.122756
v -0.616467 1.138140 -0.097378
v -0.616467 1.123847 -0.208007
v -0.632364 1.134861 -0.122756
v -0.637946 1.130993 -0.152692
v -0.632364 1.127126 -0.182629
v -0.616348 1.140857 0.055441
v -0.616348 1.140857 -0.055441
v -0.632282 1.140857 0.030004
v -0.637877 1.140857 -0.000000
v -0.632282 1.140857 -0.030005
v 0.616673 1.148013 0.250290
v 0.616673 1.124440 0.360479
v 0.632507 1.142605 0.275567
v 0.638068 1.136226 0.305384
v 0.632507 1.129848 0.335201
v 0.616673 1.093011 0.360479
v 0.616673 1.116583 0.250290
v 0.632507 1.098418 0.335201
v 0.638067 1.104797 0.305384
v 0.632507 1.111176 0.275567
v -0.616673 1.148013 0.250290
v -0.616673 1.124440 0.360479
v -0.632507 1.142605 0.275567
v -0.638068 1.136226 0.305384
v -0.632507 1.129848 0.335201
v -0.616673 1.093011 0.360479
v -0.616673 1.116583 0.250290
v -0.632507 1.098418 0.335201
v -0.638067 1.104797 0.305384
v -0.632507 1.111176 0.275567
vn 0.8951 -0.0000 -0.4459
vn 0.3176 -0.0000 -0.9482
vn -0.4459 -0.0000 -0.8951
vn -0.9482 -0.0000 -0.3176
vn -0.8951 -0.0000 0.4459
vn -0.3176 -0.0000 0.9482
vn 0.4459 -0.0000 0.8951
vn -0.0000 -1.0000 -0.0000
vn 0.9482 -0.0000 0.3176
vn -0.0000 1.0000 -0.0000
vn -0.8951 -0.0000 -0.4459
vn -0.3176 -0.0000 -0.9482
vn 0.4459 -0.0000 -0.8951
vn 0.9482 -0.0000 -0.3176
vn 0.8951 -0.0000 0.4459
vn 0.3176 -0.0000 0.9482
vn -0.4459 -0.0000 0.8951
vn -0.9482 -0.0000 0.3176
vn -0.0000 -0.0000 -1.0000
vn -0.0000 -0.0000 1.0000
vn -1.0000 -0.0000 -0.0000
vn -0.0912 0.9917 -0.0912
vn 0.0912 0.9917 -0.0912
vn 0.6219 0.7831 -0.0000
vn 0.0912 0.9917 0.0912
vn -0.0000 0.7831 -0.6219
vn -0.0912 0.9917 0.0912
vn 1.0000 -0.0000 -0.0000
vn -0.6219 0.7831 -0.0000
vn -0.0000 0.7831 0.6219
vn 0.3547 -0.9350 -0.0000
vn 0.4367 -0.8996 -0.0000
vn -0.4367 -0.8996 -0.0000
vn -0.3547 -0.9350 -0.0000
vn 0.1362 -0.9907 -0.0000
vn -0.1362 -0.9907 -0.0000
vn -0.0000 -0.9451 -0.3269
vn -0.0000 -0.9146 -0.4043
vn -0.0000 -0.9451 0.3269
vn -0.0000 -0.9922 -0.1246
vn -0.0000 -0.9922 0.1246
vn -0.0000 -0.9146 0.4043
vn 0.7922 -0.0000 0.6103
vn 0.7295 -0.0000 0.6839
vn -0.3768 -0.0000 -0.9263
vn -0.4161 -0.0000 -0.9093
vn 0.4161 -0.0000 -0.9093
vn 0.3768 -0.0000 -0.9263
vn -0.0000 0.9779 0.2092
vn 0.3768 -0.0000 0.9263
vn 0.4161 -0.0000 0.9093
vn -0.4161 -0.0000 0.9093
vn -0.3768 -0.0000 0.9263
vn -0.7858 -0.0000 0.6185
vn -0.7984 -0.0000 0.6021
vn -0.0000 -0.9979 0.0641
vn -0.7883 -0.0000 0.6152
vn -0.7295 -0.0000 0.6839
vn -0.7960 -0.0000 0.6053
vn -0.0000 -0.9857 0.1687
vn -0.0000 -0.9918 0.1281
vn -0.0000 0.9779 -0.2092
vn -0.0000 -0.9979 -0.0641
vn -0.0000 -0.9857 -0.1687
vn -0.0000 -0.9779 -0.2092
vn -0.0000 -0.9918 -0.1281
vn -0.0000 0.9979 0.0641
vn -0.0000 0.9918 0.1281
vn -0.7922 -0.0000 0.6103
vn 0.7295 -0.0000 -0.6839
vn 0.7960 -0.0000 -0.6053
vn 0.7883 -0.0000 -0.6152
vn 0.7922 -0.0000 -0.6103
vn -0.0000 0.9979 -0.0641
vn 0.7960 -0.0000 0.6053
vn 0.7883 -0.0000 0.6152
vn -0.7295 -0.0000 -0.6839
vn -0.7960 -0.0000 -0.6053
vn -0.7883 -0.0000 -0.6152
vn -0.0000 0.9857 -0.1687
vn -0.0000 0.9918 -0.1281
vn 0.7858 -0.0000 0.6185
vn 0.7984 -0.0000 0.6021
vn -0.0000 0.9857 0.1687
vn -0.0000 -0.9779 0.2092
vn 0.7984 -0.0000 -0.6021
vn 0.7858 -0.0000 -0.6185
vn -0.7922 -0.0000 -0.6103
vn -0.7858 -0.0000 -0.6185
vn -0.7984 -0.0000 -0.6021
vn 0.9263 -0.0000 0.3767
vn 0.9367 -0.0000 0.3503
vn 0.9999 -0.0000 0.0150
vn 0.9999 -0.0000 -0.0150
vn 0.9367 -0.0000 -0.3503
vn 0.9263 -0.0000 -0.3767
vn 0.9316 -0.0000 0.3635
vn 0.9316 -0.0000 -0.3635
vn 0.9398 -0.0000 0.3418
vn 0.9228 -0.0000 0.3853
vn 0.9997 -0.0000 -0.0246
vn 0.9997 -0.0000 0.0246
vn 0.9228 -0.0000 -0.3853
vn 0.9398 -0.0000 -0.3418
vn -0.9228 -0.0000 0.3853
vn -0.9398 -0.0000 0.3418
vn -0.9997 -0.0000 0.0246
vn -0.9997 -0.0000 -0.0246
vn -0.9398 -0.0000 -0.3418
vn -0.9228 -0.0000 -0.3853
vn -0.9263 -0.0000 0.3767
vn -0.9367 -0.0000 0.3503
vn -0.9999 -0.0000 0.0150
vn -0.9999 -0.0000 -0.0150
vn -0.9367 -0.0000 -0.3503
vn -0.9263 -0.0000 -0.3767
vn -0.9316 -0.0000 0.3635
vn -0.9316 -0.0000 -0.3635
vt 0.789024 0.929493
vt 0.789024 0.841082
vt 0.794956 0.841082
vt 0.794956 0.929493
vt 0.747504 0.929493
vt 0.747504 0.841082
vt 0.753435 0.841082
vt 0.753435 0.929493
vt 0.759367 0.841082
vt 0.759367 0.929493
vt 0.765298 0.841082
vt 0.765298 0.929493
vt 0.771230 0.841082
vt 0.771230 0.929493
vt 0.777161 0.841082
vt 0.777161 0.929493
vt 0.282490 0.898443
vt 0.277065 0.903867
vt 0.269394 0.903867
vt 0.263969 0.898443
vt 0.263969 0.890771
vt 0.269394 0.885347
vt 0.277065 0.885347
vt 0.282490 0.890771
vt 0.783093 0.841082
vt 0.783093 0.929493
vt 0.012058 0.991928
vt 0.006634 0.986504
vt 0.006634 0.978832
vt 0.012058 0.973408
vt 0.019730 0.973408
vt 0.025154 0.978832
vt 0.025154 0.986504
vt 0.019730 0.991928
vt 0.230066 0.674351
vt 0.230515 0.762761
vt 0.224584 0.762791
vt 0.224135 0.674381
vt 0.241929 0.674291
vt 0.242378 0.762701
vt 0.236447 0.762731
vt 0.235997 0.674321
vt 0.247860 0.674260
vt 0.248309 0.762670
vt 0.253791 0.674230
vt 0.254241 0.762640
vt 0.259723 0.674200
vt 0.260172 0.762610
vt 0.265654 0.674170
vt 0.266103 0.762580
vt 0.292866 0.860934
vt 0.287442 0.866358
vt 0.279770 0.866358
vt 0.274346 0.860934
vt 0.274346 0.853262
vt 0.279770 0.847838
vt 0.287442 0.847838
vt 0.292866 0.853262
vt 0.218653 0.762821
vt 0.218203 0.674411
vt 0.031545 0.991928
vt 0.026121 0.986504
vt 0.026121 0.978832
vt 0.031545 0.973408
vt 0.039217 0.973408
vt 0.044641 0.978832
vt 0.044641 0.986504
vt 0.039217 0.991928
vt 0.413724 0.733338
vt 0.407793 0.733338
vt 0.407793 0.644927
vt 0.413724 0.644927
vt 0.455244 0.733338
vt 0.449313 0.733338
vt 0.449313 0.644927
vt 0.455244 0.644927
vt 0.443381 0.733338
vt 0.443381 0.644927
vt 0.437450 0.733338
vt 0.437450 0.644927
vt 0.431518 0.733338
vt 0.431518 0.644927
vt 0.425587 0.733338
vt 0.425587 0.644927
vt 0.088414 0.966789
vt 0.080743 0.966789
vt 0.075318 0.961364
vt 0.075318 0.953693
vt 0.080743 0.948268
vt 0.088414 0.948268
vt 0.093839 0.953693
vt 0.093839 0.961364
vt 0.419656 0.733338
vt 0.419656 0.644927
vt 0.022617 0.935106
vt 0.022757 0.942777
vt 0.017432 0.948299
vt 0.009762 0.948439
vt 0.004239 0.943114
vt 0.004099 0.935444
vt 0.009424 0.929921
vt 0.017094 0.929781
vt 0.328159 0.734002
vt 0.322227 0.734002
vt 0.322227 0.645591
vt 0.328159 0.645591
vt 0.340022 0.734002
vt 0.334090 0.734002
vt 0.334090 0.645591
vt 0.340022 0.645591
vt 0.345953 0.734002
vt 0.345953 0.645591
vt 0.351885 0.734002
vt 0.351885 0.645591
vt 0.357816 0.734002
vt 0.357816 0.645591
vt 0.363747 0.734002
vt 0.363747 0.645591
vt 0.022284 0.956654
vt 0.022424 0.964325
vt 0.017099 0.969847
vt 0.009429 0.969987
vt 0.003906 0.964662
vt 0.003766 0.956992
vt 0.009091 0.951470
vt 0.016761 0.951330
vt 0.316296 0.734002
vt 0.316296 0.645591
vt 0.068846 0.953833
vt 0.068986 0.961503
vt 0.063661 0.967026
vt 0.055991 0.967166
vt 0.050468 0.961841
vt 0.050328 0.954171
vt 0.055653 0.948649
vt 0.063323 0.948509
vt 0.204332 0.674103
vt 0.210263 0.674073
vt 0.210713 0.762483
vt 0.204781 0.762513
vt 0.162813 0.674314
vt 0.168744 0.674284
vt 0.169193 0.762694
vt 0.163262 0.762724
vt 0.174675 0.674254
vt 0.175124 0.762664
vt 0.180607 0.674224
vt 0.181056 0.762634
vt 0.186538 0.674194
vt 0.186987 0.762604
vt 0.192469 0.674164
vt 0.192918 0.762574
vt 0.279770 0.828350
vt 0.287442 0.828350
vt 0.292866 0.833775
vt 0.292866 0.841446
vt 0.287442 0.846871
vt 0.279770 0.846871
vt 0.274346 0.841447
vt 0.274346 0.833775
vt 0.198401 0.674133
vt 0.198850 0.762543
vt 0.084974 0.991806
vt 0.077302 0.991806
vt 0.071878 0.986381
vt 0.071878 0.978709
vt 0.077302 0.973285
vt 0.084974 0.973285
vt 0.090398 0.978709
vt 0.090398 0.986381
vt 0.494761 0.644105
vt 0.500693 0.644105
vt 0.500693 0.732516
vt 0.494761 0.732516
vt 0.482899 0.644105
vt 0.488830 0.644105
vt 0.488830 0.732516
vt 0.482898 0.732516
vt 0.476967 0.644105
vt 0.476967 0.732516
vt 0.471036 0.644105
vt 0.471036 0.732516
vt 0.465104 0.644105
vt 0.465104 0.732516
vt 0.459173 0.644105
vt 0.459173 0.732516
vt 0.080743 0.928781
vt 0.088414 0.928781
vt 0.093839 0.934206
vt 0.093839 0.941877
vt 0.088414 0.947302
vt 0.080743 0.947302
vt 0.075318 0.941877
vt 0.075318 0.934206
vt 0.506624 0.644105
vt 0.506624 0.732516
vt 0.065487 0.991806
vt 0.057815 0.991806
vt 0.052391 0.986381
vt 0.052391 0.978709
vt 0.057815 0.973285
vt 0.065487 0.973285
vt 0.070911 0.978709
vt 0.070911 0.986381
vt 0.571945 0.745991
vt 0.571945 0.657580
vt 0.577877 0.657580
vt 0.577877 0.745991
vt 0.530425 0.745991
vt 0.530425 0.657580
vt 0.536357 0.657580
vt 0.536357 0.745991
vt 0.542288 0.657580
vt 0.542288 0.745991
vt 0.548220 0.657580
vt 0.548220 0.745991
vt 0.554151 0.657580
vt 0.554151 0.745991
vt 0.560082 0.657580
vt 0.560082 0.745991
vt 0.283456 0.890771
vt 0.288881 0.885347
vt 0.296552 0.885347
vt 0.301977 0.890771
vt 0.301977 0.898443
vt 0.296553 0.903867
vt 0.288881 0.903867
vt 0.283456 0.898443
vt 0.566014 0.657580
vt 0.566014 0.745991
vt 0.027872 0.956052
vt 0.033197 0.950529
vt 0.040867 0.950389
vt 0.046390 0.955714
vt 0.046530 0.963384
vt 0.041205 0.968907
vt 0.033535 0.969047
vt 0.028012 0.963722
vt 0.618059 0.659328
vt 0.618059 0.747739
vt 0.612127 0.747739
vt 0.612127 0.659328
vt 0.629922 0.659328
vt 0.629922 0.747739
vt 0.623990 0.747739
vt 0.623990 0.659328
vt 0.635853 0.659328
vt 0.635853 0.747739
vt 0.641784 0.659328
vt 0.641784 0.747739
vt 0.647716 0.659328
vt 0.647716 0.747739
vt 0.653647 0.659328
vt 0.653647 0.747739
vt 0.033179 0.949563
vt 0.027656 0.944238
vt 0.027517 0.936568
vt 0.032841 0.931045
vt 0.040511 0.930905
vt 0.046034 0.936230
vt 0.046174 0.943900
vt 0.040849 0.949423
vt 0.606196 0.747739
vt 0.606196 0.659328
vt 0.049973 0.934687
vt 0.055297 0.929165
vt 0.062968 0.929025
vt 0.068490 0.934349
vt 0.068630 0.942020
vt 0.063306 0.947542
vt 0.055635 0.947682
vt 0.050113 0.942358
vt 0.590262 0.752959
vt 0.600109 0.752959
vt 0.600109 0.841033
vt 0.590261 0.841033
vt 0.851325 0.113562
vt 0.851325 0.102272
vt 0.861173 0.102272
vt 0.861173 0.113562
vt 0.450861 0.891555
vt 0.439888 0.891555
vt 0.439888 0.763246
vt 0.450861 0.753399
vt 0.310278 0.787298
vt 0.321568 0.787298
vt 0.321568 0.915607
vt 0.310278 0.915607
vt 0.775832 0.692704
vt 0.775832 0.821013
vt 0.764961 0.821013
vt 0.764961 0.692704
vt 0.851325 0.296003
vt 0.861173 0.306976
vt 0.782746 0.306981
vt 0.782746 0.113561
vt 0.793616 0.113561
vt 0.793616 0.296008
vt 0.782746 0.102271
vt 0.793616 0.102271
vt 0.984504 0.728454
vt 0.984504 0.616011
vt 0.994031 0.616011
vt 0.994031 0.737083
vt 0.954093 0.496803
vt 0.954093 0.372331
vt 0.962723 0.362805
vt 0.962723 0.506330
vt 0.722314 0.658355
vt 0.722314 0.800391
vt 0.712467 0.800391
vt 0.712467 0.658355
vt 0.782706 0.699578
vt 0.782706 0.814139
vt 0.692727 0.675304
vt 0.705593 0.665229
vt 0.705592 0.793516
vt 0.692727 0.783441
vt 0.795571 0.709653
vt 0.795571 0.804063
vt 0.751911 0.297115
vt 0.751911 0.155079
vt 0.758786 0.161953
vt 0.758786 0.290240
vt 0.685893 0.945594
vt 0.685893 0.941153
vt 0.760429 0.941153
vt 0.760429 0.945594
vt 0.558936 0.941153
vt 0.558936 0.945594
vt 0.506516 0.945595
vt 0.506516 0.941153
vt 0.133617 0.742253
vt 0.133617 0.884289
vt 0.122327 0.884289
vt 0.122327 0.742253
vt 0.513237 0.493389
vt 0.513237 0.341482
vt 0.621374 0.341482
vt 0.621374 0.493389
vt 0.529705 0.117932
vt 0.671741 0.117932
vt 0.671741 0.127779
vt 0.529705 0.127779
vt 0.140146 0.884289
vt 0.140146 0.742253
vt 0.151119 0.742253
vt 0.151119 0.884289
vt 0.445606 0.331916
vt 0.445606 0.322069
vt 0.628051 0.322068
vt 0.628051 0.331916
vt 0.633474 0.941153
vt 0.633474 0.945594
vt 0.885080 0.478745
vt 0.885080 0.607054
vt 0.874107 0.607054
vt 0.874107 0.478745
vt 0.003265 0.735723
vt 0.003265 0.627586
vt 0.155171 0.627586
vt 0.155171 0.735723
vt 0.722314 0.651825
vt 0.627904 0.651825
vt 0.627904 0.499919
vt 0.722314 0.499919
vt 0.941392 0.559149
vt 0.941392 0.516043
vt 0.979026 0.516043
vt 0.979026 0.559149
vt 0.723217 0.280165
vt 0.723217 0.172028
vt 0.736082 0.161953
vt 0.736082 0.290240
vt 0.782746 0.003265
vt 0.793617 0.014197
vt 0.579391 0.752959
vt 0.579391 0.841033
vt 0.851325 0.014197
vt 0.861173 0.003265
vt 0.222694 0.343703
vt 0.310768 0.343703
vt 0.310768 0.354574
vt 0.222694 0.354574
vt 0.080874 0.742253
vt 0.080874 0.906030
vt 0.069901 0.895159
vt 0.069901 0.753124
vt 0.867703 0.296007
vt 0.876658 0.296007
vt 0.876658 0.306981
vt 0.867703 0.306981
vt 0.104865 0.753124
vt 0.115797 0.742253
vt 0.115797 0.906030
vt 0.104865 0.895159
vt 0.962905 0.193643
vt 0.962905 0.337168
vt 0.954275 0.327641
vt 0.954275 0.203169
vt 0.867703 0.003265
vt 0.876658 0.003265
vt 0.876658 0.014197
vt 0.867703 0.014197
vt 0.522426 0.995245
vt 0.513796 0.985718
vt 0.634868 0.985719
vt 0.634868 0.995245
vt 0.883187 0.003265
vt 0.894119 0.003265
vt 0.894119 0.131573
vt 0.883188 0.131573
vt 0.439076 0.343704
vt 0.439076 0.354574
vt 0.499292 0.891555
vt 0.488360 0.881707
vt 0.488360 0.753399
vt 0.499292 0.753399
vt 0.716687 0.155079
vt 0.716687 0.297115
vt 0.628613 0.297115
vt 0.628613 0.155079
vt 0.994030 0.608164
vt 0.984504 0.608164
vt 0.867703 0.113560
vt 0.876658 0.113560
vt 0.876658 0.102271
vt 0.867703 0.102271
vt 0.758431 0.709653
vt 0.758431 0.817791
vt 0.745566 0.827866
vt 0.745566 0.699578
vt 0.894119 0.140528
vt 0.883188 0.140528
vt 0.363736 0.875372
vt 0.363736 0.787298
vt 0.372691 0.787298
vt 0.372691 0.875372
vt 0.885080 0.469791
vt 0.874107 0.469791
vt 0.857037 0.990082
vt 0.857037 0.926062
vt 0.976739 0.926062
vt 0.976739 0.990082
vt 0.632762 0.971739
vt 0.632762 0.962212
vt 0.640610 0.962212
vt 0.640610 0.971738
vt 0.634581 0.322068
vt 0.722655 0.322068
vt 0.722655 0.331916
vt 0.634581 0.331916
vt 0.276500 0.706336
vt 0.286348 0.706336
vt 0.286348 0.717625
vt 0.276500 0.717625
vt 0.433358 0.753399
vt 0.433358 0.891555
vt 0.422385 0.881707
vt 0.422385 0.753399
vt 0.339387 0.787298
vt 0.339387 0.915607
vt 0.328097 0.915607
vt 0.328097 0.787298
vt 0.748584 0.557865
vt 0.759454 0.557865
vt 0.759455 0.686174
vt 0.748584 0.686174
vt 0.276501 0.523892
vt 0.286348 0.512919
vt 0.811017 0.306981
vt 0.800146 0.296007
vt 0.800146 0.113560
vt 0.811017 0.113560
vt 0.800146 0.102270
vt 0.811017 0.102270
vt 0.984504 0.495721
vt 0.994031 0.487092
vt 0.961118 0.041183
vt 0.969748 0.031657
vt 0.969748 0.175182
vt 0.961118 0.165656
vt 0.728844 0.692704
vt 0.738692 0.692704
vt 0.738692 0.834740
vt 0.728844 0.834740
vt 0.741709 0.564740
vt 0.741710 0.679300
vt 0.742956 0.155079
vt 0.742956 0.297115
vt 0.728844 0.574815
vt 0.728844 0.669225
vt 0.369217 0.946994
vt 0.475558 0.946994
vt 0.475558 0.953330
vt 0.369217 0.953330
vt 0.188093 0.953330
vt 0.113309 0.953330
vt 0.113309 0.946994
vt 0.188093 0.946994
vt 0.671741 0.148549
vt 0.529705 0.148549
vt 0.529705 0.137260
vt 0.671741 0.137260
vt 0.681612 0.003265
vt 0.681612 0.111402
vt 0.529705 0.111402
vt 0.529705 0.003265
vt 0.246841 0.914332
vt 0.246841 0.772295
vt 0.256688 0.772295
vt 0.256688 0.914332
vt 0.537938 0.752959
vt 0.537938 0.894995
vt 0.526964 0.894995
vt 0.526965 0.752959
vt 0.029490 0.742253
vt 0.029490 0.924698
vt 0.019643 0.924698
vt 0.019643 0.742253
vt 0.294432 0.953330
vt 0.294432 0.946994
vt 0.874107 0.341482
vt 0.885080 0.341482
vt 0.003265 0.621056
vt 0.003265 0.512919
vt 0.155171 0.512919
vt 0.155171 0.621056
vt 0.161701 0.664826
vt 0.161701 0.512919
vt 0.256111 0.512919
vt 0.256111 0.664826
vt 0.978427 0.637645
vt 0.978427 0.680750
vt 0.940793 0.680750
vt 0.940793 0.637645
vt 0.978671 0.689794
vt 0.978671 0.746412
vt 0.943563 0.746412
vt 0.943563 0.689794
vt 0.800146 0.014197
vt 0.811017 0.003265
vt 0.634581 0.311198
vt 0.722655 0.311198
vt 0.286348 0.816633
vt 0.276500 0.805701
vt 0.748584 0.469791
vt 0.759454 0.469791
vt 0.941278 0.624990
vt 0.941278 0.568372
vt 0.976386 0.568372
vt 0.976386 0.624990
vt 0.642716 0.995245
vt 0.642716 0.985719
vt 0.087404 0.895159
vt 0.087404 0.753124
vt 0.098336 0.742253
vt 0.098336 0.906030
vt 0.978252 0.337167
vt 0.969623 0.327641
vt 0.969623 0.203169
vt 0.978252 0.193643
vt 0.688142 0.003265
vt 0.776216 0.003265
vt 0.776216 0.145301
vt 0.688142 0.145301
vt 0.755158 0.995245
vt 0.763788 0.985718
vt 0.883187 0.268837
vt 0.894119 0.268837
vt 0.759455 0.341482
vt 0.748584 0.341482
vt 0.190095 0.772295
vt 0.190095 0.910451
vt 0.179163 0.910451
vt 0.179163 0.782143
vt 0.052398 0.895159
vt 0.052398 0.753124
vt 0.063371 0.742253
vt 0.063371 0.906030
vt 0.631905 0.841033
vt 0.631905 0.752959
vt 0.641752 0.752959
vt 0.641752 0.841033
vt 0.842245 0.534898
vt 0.852093 0.534898
vt 0.852093 0.546188
vt 0.842245 0.546188
vt 0.415855 0.753399
vt 0.415855 0.891555
vt 0.404882 0.881707
vt 0.404882 0.753399
vt 0.345917 0.915607
vt 0.345917 0.787298
vt 0.357206 0.787298
vt 0.357206 0.915607
vt 0.785724 0.557865
vt 0.796595 0.557865
vt 0.796595 0.686174
vt 0.785724 0.686174
vt 0.842245 0.352455
vt 0.852093 0.341482
vt 0.303748 0.816635
vt 0.292878 0.805662
vt 0.292878 0.623214
vt 0.303748 0.623214
vt 0.292878 0.611925
vt 0.303748 0.611925
vt 0.271578 0.932853
vt 0.277318 0.939190
vt 0.196793 0.939189
vt 0.196793 0.932853
vt 0.778850 0.564740
vt 0.778850 0.679300
vt 0.765984 0.574815
vt 0.765985 0.669225
vt 0.369217 0.963537
vt 0.475558 0.963537
vt 0.475558 0.969873
vt 0.369217 0.969873
vt 0.188092 0.969873
vt 0.113309 0.969873
vt 0.113309 0.963538
vt 0.188092 0.963538
vt 0.045868 0.742253
vt 0.045868 0.924698
vt 0.036021 0.924698
vt 0.036020 0.742253
vt 0.294432 0.969873
vt 0.294432 0.963537
vt 0.885080 0.741892
vt 0.874107 0.741892
vt 0.874107 0.613584
vt 0.885080 0.613584
vt 0.526964 0.651825
vt 0.526964 0.499919
vt 0.621374 0.499919
vt 0.621374 0.651825
vt 0.292878 0.523851
vt 0.303748 0.512919
vt 0.621034 0.841033
vt 0.621034 0.752959
vt 0.852093 0.645195
vt 0.842245 0.634263
vt 0.785724 0.469791
vt 0.796595 0.469791
vt 0.858623 0.352455
vt 0.858623 0.341482
vt 0.867577 0.341482
vt 0.867577 0.352455
vt 0.572861 0.752959
vt 0.572861 0.894994
vt 0.561929 0.894994
vt 0.561929 0.752959
vt 0.214086 0.914332
vt 0.214086 0.772296
vt 0.223934 0.772295
vt 0.223934 0.914332
vt 0.858623 0.645198
vt 0.858623 0.634266
vt 0.867577 0.634266
vt 0.867577 0.645198
vt 0.753052 0.971738
vt 0.761682 0.962212
vt 0.891610 0.607054
vt 0.891610 0.478746
vt 0.902542 0.478746
vt 0.902542 0.607054
vt 0.796595 0.341482
vt 0.785724 0.341482
vt 0.207557 0.772295
vt 0.207557 0.910452
vt 0.196625 0.910452
vt 0.196625 0.782143
vt 0.191574 0.939189
vt 0.191574 0.932853
vt 0.858623 0.534902
vt 0.867577 0.534902
vt 0.858623 0.546192
vt 0.867577 0.546192
vt 0.891610 0.469791
vt 0.902542 0.469791
vt 0.398352 0.875372
vt 0.389398 0.875372
vt 0.389398 0.787298
vt 0.398352 0.787298
vt 0.885080 0.750847
vt 0.874107 0.750847
vt 0.658130 0.841033
vt 0.648282 0.841033
vt 0.648282 0.752959
vt 0.658130 0.752959
vt 0.834948 0.113562
vt 0.834948 0.102272
vt 0.844795 0.102272
vt 0.844795 0.113562
vt 0.468364 0.891555
vt 0.457391 0.891555
vt 0.457391 0.763246
vt 0.468364 0.753399
vt 0.857494 0.320627
vt 0.857494 0.331916
vt 0.729185 0.331916
vt 0.729185 0.320626
vt 0.837932 0.676637
vt 0.837932 0.804946
vt 0.827061 0.804946
vt 0.827061 0.676637
vt 0.834948 0.296003
vt 0.844795 0.306976
vt 0.828418 0.003265
vt 0.828418 0.196685
vt 0.817547 0.196685
vt 0.817547 0.014238
vt 0.828418 0.207975
vt 0.817547 0.207975
vt 0.116789 0.932853
vt 0.111049 0.939190
vt 0.844806 0.683511
vt 0.844806 0.798071
vt 0.857671 0.693586
vt 0.857671 0.787996
vt 0.219646 0.980081
vt 0.219646 0.986417
vt 0.113307 0.986417
vt 0.113307 0.980081
vt 0.400772 0.986417
vt 0.400772 0.980081
vt 0.475558 0.980081
vt 0.475558 0.986417
vt 0.013113 0.924698
vt 0.003265 0.924698
vt 0.003265 0.742253
vt 0.013113 0.742253
vt 0.294431 0.986417
vt 0.294431 0.980081
vt 0.885080 0.879156
vt 0.874107 0.879156
vt 0.627904 0.341482
vt 0.722314 0.341482
vt 0.722314 0.493389
vt 0.627904 0.493389
vt 0.828418 0.306981
vt 0.817547 0.296049
vt 0.669000 0.841033
vt 0.669000 0.752959
vt 0.834948 0.014197
vt 0.844795 0.003265
vt 0.222694 0.321045
vt 0.310768 0.321045
vt 0.310768 0.331916
vt 0.222694 0.331916
vt 0.544468 0.752959
vt 0.555399 0.752959
vt 0.555399 0.894994
vt 0.544467 0.894994
vt 0.230463 0.772296
vt 0.240311 0.772295
vt 0.240311 0.914332
vt 0.230463 0.914332
vt 0.520320 0.971738
vt 0.511690 0.962212
vt 0.891610 0.341482
vt 0.902542 0.341482
vt 0.439076 0.321045
vt 0.439076 0.331916
vt 0.161701 0.772295
vt 0.172633 0.782143
vt 0.172633 0.910452
vt 0.161701 0.910452
vt 0.771651 0.172028
vt 0.771651 0.280165
vt 0.920591 0.533206
vt 0.920591 0.341482
vt 0.926029 0.341482
vt 0.926029 0.533206
vt 0.609066 0.857824
vt 0.609066 0.852170
vt 0.614504 0.852170
vt 0.614504 0.857824
vt 0.520435 0.639438
vt 0.520435 0.831159
vt 0.514997 0.831159
vt 0.514997 0.639438
vt 0.609066 0.786029
vt 0.609066 0.780376
vt 0.614504 0.780376
vt 0.614504 0.786029
vt 0.314984 0.460318
vt 0.506707 0.460317
vt 0.506707 0.465971
vt 0.312196 0.466060
vt 0.314984 0.361104
vt 0.506707 0.361105
vt 0.506707 0.366758
vt 0.312196 0.366846
vt 0.314984 0.394175
vt 0.506707 0.394175
vt 0.506707 0.399829
vt 0.312196 0.399918
vt 0.314984 0.427246
vt 0.506707 0.427246
vt 0.506707 0.432900
vt 0.312196 0.432989
vt 0.520435 0.633055
vt 0.514997 0.633055
vt 0.609066 0.885240
vt 0.609066 0.879587
vt 0.614504 0.879587
vt 0.614504 0.885240
vt 0.520435 0.569678
vt 0.520435 0.576061
vt 0.514997 0.576061
vt 0.514997 0.569678
vt 0.609066 0.758613
vt 0.609066 0.752959
vt 0.614504 0.752959
vt 0.614504 0.758613
vt 0.609066 0.819100
vt 0.609066 0.813446
vt 0.614504 0.813446
vt 0.614504 0.819100
vt 0.609066 0.846516
vt 0.614504 0.846516
vt 0.520435 0.528416
vt 0.520435 0.534798
vt 0.514997 0.534798
vt 0.514997 0.528416
vt 0.520435 0.541181
vt 0.514997 0.541181
vt 0.312196 0.487646
vt 0.506707 0.487734
vt 0.506707 0.493388
vt 0.314984 0.493389
vt 0.520434 0.563295
vt 0.514997 0.563295
vt 0.312196 0.454575
vt 0.506707 0.454663
vt 0.609066 0.791683
vt 0.614504 0.791683
vt 0.520435 0.598175
vt 0.520435 0.604558
vt 0.514997 0.604558
vt 0.514997 0.598175
vt 0.312196 0.421504
vt 0.506707 0.421593
vt 0.609066 0.824753
vt 0.614504 0.824753
vt 0.520435 0.610941
vt 0.514997 0.610941
vt 0.312196 0.388433
vt 0.506707 0.388522
vt 0.514997 0.521309
vt 0.520435 0.521309
vt 0.514997 0.513408
vt 0.520435 0.513408
vt 0.514997 0.506301
vt 0.520435 0.506301
vt 0.614504 0.765867
vt 0.609066 0.765867
vt 0.614504 0.773121
vt 0.609066 0.773121
vt 0.310278 0.480804
vt 0.506707 0.480480
vt 0.310278 0.472903
vt 0.506707 0.473225
vt 0.310278 0.447733
vt 0.506707 0.447409
vt 0.310278 0.439831
vt 0.506707 0.440155
vt 0.514997 0.556189
vt 0.520435 0.556189
vt 0.514997 0.548288
vt 0.520435 0.548288
vt 0.614504 0.798937
vt 0.609066 0.798937
vt 0.614504 0.806192
vt 0.609066 0.806192
vt 0.310278 0.414661
vt 0.506707 0.414338
vt 0.310278 0.406760
vt 0.506707 0.407084
vt 0.514997 0.591069
vt 0.520435 0.591069
vt 0.514997 0.583168
vt 0.520435 0.583168
vt 0.614504 0.832008
vt 0.609066 0.832008
vt 0.614504 0.839262
vt 0.609066 0.839262
vt 0.310278 0.381590
vt 0.506707 0.381267
vt 0.310278 0.373689
vt 0.506707 0.374013
vt 0.614504 0.865078
vt 0.609066 0.865078
vt 0.614504 0.872332
vt 0.609066 0.872332
vt 0.514997 0.625949
vt 0.520435 0.625949
vt 0.514997 0.618047
vt 0.520435 0.618047
vt 0.520435 0.499919
vt 0.514997 0.499919
vt 0.902542 0.613584
vt 0.902542 0.899441
vt 0.897553 0.899446
vt 0.897553 0.613590
vt 0.915833 0.289123
vt 0.915833 0.003270
vt 0.920823 0.003265
vt 0.920823 0.289118
vt 0.301830 0.476373
vt 0.003265 0.476278
vt 0.003265 0.470068
vt 0.299043 0.470067
vt 0.301830 0.440054
vt 0.003265 0.439956
vt 0.003265 0.433747
vt 0.299043 0.433748
vt 0.301830 0.403734
vt 0.003265 0.403635
vt 0.003265 0.397425
vt 0.299043 0.397429
vt 0.513540 0.901525
vt 0.520435 0.901525
vt 0.520435 0.906347
vt 0.513540 0.906347
vt 0.444475 0.901525
vt 0.451370 0.901525
vt 0.451370 0.906347
vt 0.444475 0.906347
vt 0.399600 0.901525
vt 0.406495 0.901525
vt 0.406495 0.906347
vt 0.399600 0.906347
vt 0.299044 0.506387
vt 0.003265 0.506389
vt 0.003265 0.500181
vt 0.301831 0.500081
vt 0.413390 0.901525
vt 0.413390 0.906347
vt 0.437580 0.901525
vt 0.437580 0.906347
vt 0.003265 0.463859
vt 0.301830 0.463762
vt 0.475560 0.901525
vt 0.482455 0.901525
vt 0.482455 0.906347
vt 0.475560 0.906347
vt 0.003265 0.427538
vt 0.301830 0.427443
vt 0.489350 0.901525
vt 0.489350 0.906347
vt 0.003265 0.391217
vt 0.301830 0.391123
vt 0.301831 0.367415
vt 0.003266 0.367313
vt 0.003266 0.361104
vt 0.299044 0.361109
vt 0.303748 0.483888
vt 0.003265 0.484245
vt 0.303748 0.492566
vt 0.003265 0.492213
vt 0.391844 0.906347
vt 0.391844 0.901525
vt 0.383166 0.906347
vt 0.383166 0.901525
vt 0.375410 0.906347
vt 0.375410 0.901525
vt 0.303748 0.447569
vt 0.003265 0.447924
vt 0.303748 0.456247
vt 0.003265 0.455892
vt 0.429824 0.906347
vt 0.429824 0.901525
vt 0.421146 0.906347
vt 0.421146 0.901525
vt 0.303748 0.411250
vt 0.003265 0.411602
vt 0.303748 0.419928
vt 0.003265 0.419570
vt 0.467804 0.906347
vt 0.467804 0.901525
vt 0.459126 0.906347
vt 0.459126 0.901525
vt 0.505784 0.906347
vt 0.505784 0.901525
vt 0.497106 0.906347
vt 0.497106 0.901525
vt 0.303748 0.374930
vt 0.003266 0.375281
vt 0.303748 0.383608
vt 0.003265 0.383249
vt 0.368515 0.901525
vt 0.368515 0.906347
vt 0.803125 0.533206
vt 0.803126 0.341482
vt 0.808563 0.341482
vt 0.808563 0.533206
vt 0.808562 0.891868
vt 0.808562 0.897522
vt 0.803125 0.897522
vt 0.803125 0.891868
vt 0.808563 0.672727
vt 0.808562 0.864451
vt 0.803125 0.864451
vt 0.803125 0.672727
vt 0.808563 0.963662
vt 0.808563 0.969316
vt 0.803125 0.969316
vt 0.803125 0.963662
vt 0.224611 0.182408
vt 0.419123 0.182497
vt 0.419123 0.188150
vt 0.227399 0.188150
vt 0.224611 0.215479
vt 0.419123 0.215567
vt 0.419123 0.221221
vt 0.227399 0.221221
vt 0.224611 0.248550
vt 0.419123 0.248638
vt 0.419123 0.254292
vt 0.227399 0.254292
vt 0.808563 0.666344
vt 0.803125 0.666344
vt 0.808562 0.870105
vt 0.803125 0.870105
vt 0.808563 0.602966
vt 0.808563 0.609349
vt 0.803125 0.609349
vt 0.803125 0.602966
vt 0.808563 0.991079
vt 0.808563 0.996732
vt 0.803126 0.996733
vt 0.803126 0.991079
vt 0.808562 0.930592
vt 0.808563 0.936246
vt 0.803125 0.936246
vt 0.803125 0.930592
vt 0.808562 0.903175
vt 0.803125 0.903175
vt 0.808563 0.561703
vt 0.808563 0.568086
vt 0.803125 0.568086
vt 0.803125 0.561703
vt 0.227399 0.155079
vt 0.419123 0.155080
vt 0.419123 0.160733
vt 0.224611 0.160821
vt 0.808563 0.574469
vt 0.803125 0.574469
vt 0.808563 0.596583
vt 0.803125 0.596583
vt 0.419123 0.193804
vt 0.224611 0.193892
vt 0.808563 0.958009
vt 0.803125 0.958009
vt 0.808563 0.631464
vt 0.808563 0.637847
vt 0.803125 0.637847
vt 0.803125 0.631464
vt 0.419123 0.226875
vt 0.224611 0.226964
vt 0.808562 0.924938
vt 0.803125 0.924938
vt 0.808563 0.644230
vt 0.803125 0.644230
vt 0.419123 0.259946
vt 0.224611 0.260035
vt 0.224611 0.281621
vt 0.419123 0.281709
vt 0.419123 0.287363
vt 0.227399 0.287364
vt 0.222694 0.175565
vt 0.419123 0.175242
vt 0.222694 0.167664
vt 0.419123 0.167988
vt 0.803125 0.554597
vt 0.808563 0.554597
vt 0.803125 0.546695
vt 0.808563 0.546695
vt 0.803125 0.539589
vt 0.808563 0.539589
vt 0.803125 0.983825
vt 0.808563 0.983825
vt 0.803125 0.976570
vt 0.808563 0.976570
vt 0.222694 0.208636
vt 0.419123 0.208313
vt 0.222694 0.200735
vt 0.419123 0.201059
vt 0.803125 0.589477
vt 0.808563 0.589477
vt 0.803125 0.581575
vt 0.808563 0.581575
vt 0.803125 0.950754
vt 0.808563 0.950754
vt 0.803125 0.943500
vt 0.808563 0.943500
vt 0.222694 0.241707
vt 0.419123 0.241384
vt 0.222694 0.233806
vt 0.419123 0.234129
vt 0.803125 0.624357
vt 0.808563 0.624357
vt 0.803125 0.616456
vt 0.808563 0.616456
vt 0.803125 0.917684
vt 0.808562 0.917684
vt 0.803125 0.910430
vt 0.808562 0.910430
vt 0.803125 0.884614
vt 0.808562 0.884614
vt 0.803125 0.877359
vt 0.808562 0.877359
vt 0.803125 0.659238
vt 0.808563 0.659238
vt 0.803125 0.651336
vt 0.808563 0.651336
vt 0.222694 0.274779
vt 0.419123 0.274455
vt 0.222694 0.266878
vt 0.419123 0.267200
vt 0.920591 0.539736
vt 0.926029 0.539736
vt 0.926029 0.731462
vt 0.920591 0.731462
vt 0.268079 0.617785
vt 0.262641 0.617785
vt 0.262641 0.612131
vt 0.268079 0.612131
vt 0.414421 0.309078
vt 0.414421 0.314515
vt 0.222694 0.314515
vt 0.222694 0.309078
vt 0.268079 0.545990
vt 0.262641 0.545990
vt 0.262641 0.540336
vt 0.268079 0.540336
vt 0.314983 0.532990
vt 0.312196 0.527248
vt 0.506709 0.527336
vt 0.506709 0.532989
vt 0.314983 0.632202
vt 0.312196 0.626460
vt 0.506709 0.626548
vt 0.506709 0.632202
vt 0.314983 0.599131
vt 0.312196 0.593389
vt 0.506709 0.593477
vt 0.506709 0.599131
vt 0.314984 0.566060
vt 0.312196 0.560318
vt 0.506709 0.560407
vt 0.506709 0.566060
vt 0.420804 0.309078
vt 0.420804 0.314515
vt 0.268079 0.645202
vt 0.262641 0.645202
vt 0.262641 0.639548
vt 0.268079 0.639548
vt 0.484181 0.309078
vt 0.484181 0.314515
vt 0.477798 0.314515
vt 0.477798 0.309078
vt 0.268079 0.518573
vt 0.262641 0.518573
vt 0.262641 0.512919
vt 0.268079 0.512919
vt 0.268079 0.579060
vt 0.262641 0.579060
vt 0.262641 0.573407
vt 0.268079 0.573407
vt 0.262641 0.606477
vt 0.268079 0.606477
vt 0.525443 0.309078
vt 0.525443 0.314515
vt 0.519061 0.314515
vt 0.519061 0.309078
vt 0.512678 0.314515
vt 0.512678 0.309078
vt 0.312196 0.505661
vt 0.314983 0.499919
vt 0.506709 0.499919
vt 0.506709 0.505572
vt 0.490564 0.309078
vt 0.490564 0.314515
vt 0.312196 0.538732
vt 0.506709 0.538643
vt 0.268079 0.551643
vt 0.262641 0.551643
vt 0.455684 0.309078
vt 0.455684 0.314515
vt 0.449301 0.314515
vt 0.449301 0.309078
vt 0.312196 0.571802
vt 0.506709 0.571714
vt 0.268079 0.584714
vt 0.262641 0.584714
vt 0.442918 0.314515
vt 0.442918 0.309078
vt 0.312196 0.604873
vt 0.506709 0.604785
vt 0.532550 0.309078
vt 0.532550 0.314515
vt 0.540451 0.309078
vt 0.540451 0.314515
vt 0.547558 0.309078
vt 0.547558 0.314515
vt 0.268079 0.525827
vt 0.262641 0.525827
vt 0.268079 0.533082
vt 0.262641 0.533082
vt 0.506709 0.512827
vt 0.310278 0.512504
vt 0.506709 0.520081
vt 0.310278 0.520405
vt 0.506709 0.545898
vt 0.310278 0.545574
vt 0.506709 0.553152
vt 0.310278 0.553476
vt 0.497670 0.309078
vt 0.497670 0.314515
vt 0.505571 0.309078
vt 0.505571 0.314515
vt 0.268079 0.558898
vt 0.262641 0.558898
vt 0.268079 0.566152
vt 0.262641 0.566152
vt 0.506709 0.578968
vt 0.310278 0.578645
vt 0.506709 0.586223
vt 0.310278 0.586546
vt 0.462790 0.309078
vt 0.462790 0.314515
vt 0.470691 0.309078
vt 0.470691 0.314515
vt 0.268079 0.591969
vt 0.262641 0.591969
vt 0.268079 0.599223
vt 0.262641 0.599223
vt 0.506709 0.612039
vt 0.310278 0.611716
vt 0.506709 0.619294
vt 0.310278 0.619617
vt 0.268079 0.625039
vt 0.262641 0.625039
vt 0.268079 0.632294
vt 0.262641 0.632294
vt 0.427910 0.309078
vt 0.427910 0.314515
vt 0.435811 0.309078
vt 0.435811 0.314515
vt 0.553941 0.309078
vt 0.553941 0.314515
vt 0.909072 0.341482
vt 0.914061 0.341488
vt 0.914061 0.627344
vt 0.909072 0.627338
vt 0.909072 0.633874
vt 0.914061 0.633880
vt 0.914061 0.919733
vt 0.909072 0.919727
vt 0.521258 0.033279
vt 0.518470 0.039586
vt 0.222694 0.039587
vt 0.222694 0.033379
vt 0.521258 0.069601
vt 0.518470 0.075907
vt 0.222694 0.075907
vt 0.222694 0.069699
vt 0.521258 0.105922
vt 0.518470 0.112228
vt 0.222694 0.112227
vt 0.222694 0.106019
vt 0.679303 0.915439
vt 0.679303 0.910617
vt 0.686197 0.910617
vt 0.686197 0.915439
vt 0.610238 0.915439
vt 0.610238 0.910617
vt 0.617133 0.910617
vt 0.617133 0.915439
vt 0.565364 0.915439
vt 0.565364 0.910617
vt 0.572259 0.910617
vt 0.572259 0.915439
vt 0.518470 0.003265
vt 0.521258 0.009571
vt 0.222694 0.009476
vt 0.222694 0.003267
vt 0.579154 0.910617
vt 0.579154 0.915439
vt 0.603343 0.915439
vt 0.603344 0.910617
vt 0.521258 0.045892
vt 0.222694 0.045796
vt 0.641323 0.915439
vt 0.641323 0.910617
vt 0.648218 0.910617
vt 0.648218 0.915439
vt 0.521258 0.082213
vt 0.222694 0.082116
vt 0.655113 0.910617
vt 0.655113 0.915439
vt 0.521258 0.118534
vt 0.222694 0.118436
vt 0.521258 0.142243
vt 0.518470 0.148549
vt 0.222694 0.148547
vt 0.222694 0.142338
vt 0.222694 0.025411
vt 0.523175 0.025764
vt 0.222694 0.017443
vt 0.523175 0.017086
vt 0.557608 0.915439
vt 0.557608 0.910617
vt 0.548930 0.915439
vt 0.548930 0.910617
vt 0.541174 0.915439
vt 0.541174 0.910617
vt 0.222694 0.061731
vt 0.523176 0.062086
vt 0.222694 0.053763
vt 0.523176 0.053407
vt 0.595587 0.915439
vt 0.595587 0.910617
vt 0.586910 0.915439
vt 0.586910 0.910617
vt 0.222694 0.098051
vt 0.523176 0.098407
vt 0.222694 0.090083
vt 0.523176 0.089728
vt 0.633567 0.915439
vt 0.633567 0.910617
vt 0.624889 0.915439
vt 0.624889 0.910617
vt 0.671547 0.915439
vt 0.671547 0.910617
vt 0.662869 0.915439
vt 0.662869 0.910617
vt 0.222694 0.134371
vt 0.523175 0.134728
vt 0.222694 0.126403
vt 0.523175 0.126050
vt 0.534279 0.915439
vt 0.534279 0.910617
vt 0.815093 0.805010
vt 0.820531 0.805010
vt 0.820531 0.996735
vt 0.815093 0.996735
vt 0.820531 0.446350
vt 0.815093 0.446350
vt 0.815093 0.440696
vt 0.820531 0.440696
vt 0.820531 0.665493
vt 0.815093 0.665493
vt 0.815093 0.473768
vt 0.820531 0.473768
vt 0.820531 0.374554
vt 0.815093 0.374554
vt 0.815093 0.368900
vt 0.820531 0.368900
vt 0.620165 0.182408
vt 0.617378 0.188150
vt 0.425653 0.188150
vt 0.425653 0.182496
vt 0.620165 0.215479
vt 0.617378 0.221221
vt 0.425653 0.221221
vt 0.425653 0.215567
vt 0.620165 0.248549
vt 0.617378 0.254291
vt 0.425653 0.254292
vt 0.425653 0.248638
vt 0.820531 0.671875
vt 0.815093 0.671875
vt 0.815093 0.468114
vt 0.820531 0.468114
vt 0.820531 0.735251
vt 0.815093 0.735251
vt 0.815093 0.728869
vt 0.820531 0.728869
vt 0.820531 0.347136
vt 0.815093 0.347136
vt 0.815093 0.341482
vt 0.820531 0.341482
vt 0.820531 0.407625
vt 0.815093 0.407625
vt 0.815093 0.401971
vt 0.820531 0.401971
vt 0.815093 0.435043
vt 0.820531 0.435043
vt 0.820531 0.776514
vt 0.815093 0.776514
vt 0.815093 0.770131
vt 0.820531 0.770131
vt 0.617378 0.155079
vt 0.620165 0.160821
vt 0.425653 0.160733
vt 0.425653 0.155079
vt 0.815093 0.763748
vt 0.820531 0.763748
vt 0.820531 0.741634
vt 0.815093 0.741634
vt 0.620165 0.193892
vt 0.425653 0.193804
vt 0.820531 0.380207
vt 0.815093 0.380207
vt 0.820531 0.706755
vt 0.815093 0.706755
vt 0.815093 0.700372
vt 0.820531 0.700372
vt 0.620165 0.226963
vt 0.425653 0.226875
vt 0.820531 0.413279
vt 0.815093 0.413279
vt 0.815093 0.693989
vt 0.820531 0.693989
vt 0.620165 0.260033
vt 0.425653 0.259945
vt 0.620165 0.281620
vt 0.617378 0.287362
vt 0.425653 0.287362
vt 0.425653 0.281709
vt 0.425653 0.175242
vt 0.622083 0.175565
vt 0.425653 0.167987
vt 0.622083 0.167664
vt 0.820531 0.783620
vt 0.815093 0.783620
vt 0.820531 0.791521
vt 0.815093 0.791521
vt 0.820531 0.798628
vt 0.815093 0.798628
vt 0.820531 0.354391
vt 0.815093 0.354391
vt 0.820531 0.361645
vt 0.815093 0.361645
vt 0.425653 0.208312
vt 0.622083 0.208636
vt 0.425653 0.201058
vt 0.622083 0.200735
vt 0.820531 0.748740
vt 0.815093 0.748740
vt 0.820531 0.756642
vt 0.815093 0.756642
vt 0.820531 0.387462
vt 0.815093 0.387462
vt 0.820531 0.394717
vt 0.815093 0.394717
vt 0.425653 0.241383
vt 0.622083 0.241707
vt 0.425653 0.234129
vt 0.622083 0.233805
vt 0.820531 0.713861
vt 0.815093 0.713861
vt 0.820531 0.721762
vt 0.815093 0.721762
vt 0.820531 0.420533
vt 0.815093 0.420533
vt 0.820531 0.427788
vt 0.815093 0.427788
vt 0.820531 0.453605
vt 0.815093 0.453605
vt 0.820531 0.460859
vt 0.815093 0.460859
vt 0.820531 0.678982
vt 0.815093 0.678982
vt 0.820531 0.686883
vt 0.815093 0.686883
vt 0.425653 0.274454
vt 0.622083 0.274777
vt 0.425653 0.267200
vt 0.622083 0.266876
vt 0.686197 0.797889
vt 0.686197 0.805780
vt 0.677543 0.805780
vt 0.677543 0.797889
vt 0.551317 0.293894
vt 0.551317 0.302548
vt 0.222694 0.302548
vt 0.222694 0.293893
vt 0.216164 0.343138
vt 0.210182 0.348621
vt 0.210183 0.009154
vt 0.216164 0.014636
vt 0.827061 0.341482
vt 0.835715 0.341482
vt 0.835715 0.670107
vt 0.827061 0.670107
vt 0.909303 0.240977
vt 0.909303 0.248998
vt 0.900649 0.248998
vt 0.900649 0.240977
vt 0.962620 0.882525
vt 0.960868 0.884167
vt 0.960869 0.782165
vt 0.962621 0.783787
vt 0.909303 0.191889
vt 0.909303 0.199827
vt 0.900649 0.199827
vt 0.900649 0.191889
vt 0.975357 0.882525
vt 0.973603 0.884156
vt 0.973604 0.782156
vt 0.975358 0.783787
vt 0.003266 0.014701
vt 0.009248 0.009217
vt 0.009245 0.348686
vt 0.003265 0.343203
vt 0.951692 0.884167
vt 0.949940 0.882545
vt 0.949941 0.783807
vt 0.951693 0.782165
vt 0.909303 0.044415
vt 0.909303 0.052436
vt 0.900649 0.052436
vt 0.900649 0.044415
vt 0.937203 0.882545
vt 0.935405 0.884193
vt 0.935406 0.782160
vt 0.937203 0.783807
vt 0.948185 0.884176
vt 0.948186 0.782176
vt 0.130812 0.014635
vt 0.136649 0.009208
vt 0.136643 0.348565
vt 0.130806 0.343137
vt 0.909303 0.093635
vt 0.909303 0.101573
vt 0.900649 0.101573
vt 0.900649 0.093635
vt 0.909303 0.142800
vt 0.909303 0.150690
vt 0.900649 0.150690
vt 0.900649 0.142800
vt 0.686197 0.707525
vt 0.686197 0.715463
vt 0.677543 0.715463
vt 0.677543 0.707525
vt 0.124982 0.009238
vt 0.124975 0.348600
vt 0.686197 0.756662
vt 0.686197 0.764552
vt 0.677543 0.764552
vt 0.677543 0.756662
vt 0.088622 0.014701
vt 0.094453 0.009238
vt 0.094449 0.348600
vt 0.088619 0.343204
vt 0.686197 0.846979
vt 0.686197 0.854916
vt 0.677543 0.854916
vt 0.677543 0.846979
vt 0.686197 0.813717
vt 0.677543 0.813717
vt 0.909303 0.158628
vt 0.900649 0.158628
vt 0.964375 0.884156
vt 0.964375 0.782156
vt 0.040264 0.009217
vt 0.046246 0.014701
vt 0.046241 0.343203
vt 0.040260 0.348686
vt 0.938957 0.884176
vt 0.938958 0.782176
vt 0.082786 0.009275
vt 0.082782 0.348631
vt 0.686197 0.699504
vt 0.677543 0.699504
vt 0.167351 0.009209
vt 0.173188 0.014636
vt 0.173184 0.343137
vt 0.167346 0.348565
vt 0.686197 0.748724
vt 0.677543 0.748724
vt 0.977155 0.884173
vt 0.977156 0.782140
vt 0.686197 0.658355
vt 0.686197 0.666376
vt 0.677543 0.666376
vt 0.677543 0.658355
vt 0.686197 0.904087
vt 0.677543 0.904087
vt 0.677543 0.896066
vt 0.686197 0.896066
vt 0.052083 0.009274
vt 0.052078 0.348631
vt 0.686197 0.862937
vt 0.677543 0.862937
vt 0.926082 0.884193
vt 0.924284 0.882545
vt 0.924286 0.783807
vt 0.926084 0.782160
vt 0.179165 0.348621
vt 0.179168 0.009153
vt 0.909303 0.060373
vt 0.900649 0.060373
vt 0.909303 0.109463
vt 0.900649 0.109463
vt 0.909303 0.003265
vt 0.909303 0.011286
vt 0.900649 0.011286
vt 0.900649 0.003265
vt 0.909303 0.207848
vt 0.900649 0.207848
vt 0.941075 0.780861
vt 0.941074 0.885491
vt 0.943572 0.780399
vt 0.943571 0.885953
vt 0.946069 0.780861
vt 0.946068 0.885491
vt 0.953798 0.780847
vt 0.953797 0.885486
vt 0.956281 0.780384
vt 0.956280 0.885949
vt 0.958764 0.780847
vt 0.958763 0.885486
vt 0.966492 0.780841
vt 0.966492 0.885471
vt 0.968989 0.780379
vt 0.968989 0.885933
vt 0.971487 0.780841
vt 0.971486 0.885472
vt 0.033145 0.353044
vt 0.033150 0.004859
vt 0.024753 0.354574
vt 0.024756 0.003328
vt 0.016360 0.353044
vt 0.016363 0.004859
vt 0.160303 0.352941
vt 0.160307 0.004833
vt 0.151995 0.354477
vt 0.152000 0.003296
vt 0.143686 0.352940
vt 0.143693 0.004832
vt 0.117972 0.352987
vt 0.117978 0.004851
vt 0.109712 0.354527
vt 0.109718 0.003310
vt 0.101451 0.352987
vt 0.101458 0.004850
vt 0.075738 0.353007
vt 0.075741 0.004898
vt 0.067430 0.354543
vt 0.067434 0.003362
vt 0.059122 0.353007
vt 0.059127 0.004898
vt 0.979294 0.780830
vt 0.979294 0.885483
vt 0.981817 0.780370
vt 0.981817 0.885943
vt 0.984340 0.780830
vt 0.984339 0.885483
vt 0.986478 0.782140
vt 0.986478 0.884173
vt 0.677543 0.838733
vt 0.686197 0.838733
vt 0.677543 0.830348
vt 0.686197 0.830348
vt 0.677543 0.821963
vt 0.686197 0.821963
vt 0.677543 0.789625
vt 0.686197 0.789625
vt 0.677543 0.781221
vt 0.686197 0.781221
vt 0.677543 0.772817
vt 0.686197 0.772817
vt 0.677543 0.740479
vt 0.686197 0.740479
vt 0.677543 0.732094
vt 0.686197 0.732094
vt 0.677543 0.723709
vt 0.686197 0.723709
vt 0.677543 0.691292
vt 0.686197 0.691292
vt 0.677543 0.682940
vt 0.686197 0.682940
vt 0.677543 0.674589
vt 0.686197 0.674589
vt 0.900649 0.036202
vt 0.909303 0.036202
vt 0.900649 0.027850
vt 0.909303 0.027850
vt 0.900649 0.019499
vt 0.909303 0.019499
vt 0.900649 0.085389
vt 0.909303 0.085389
vt 0.900649 0.077004
vt 0.909303 0.077004
vt 0.900649 0.068619
vt 0.909303 0.068619
vt 0.900649 0.134535
vt 0.909303 0.134535
vt 0.900649 0.126131
vt 0.909303 0.126131
vt 0.900649 0.117727
vt 0.909303 0.117727
vt 0.900649 0.183644
vt 0.909303 0.183644
vt 0.900649 0.175259
vt 0.909303 0.175259
vt 0.900649 0.166874
vt 0.909303 0.166874
vt 0.686197 0.871150
vt 0.677543 0.871150
vt 0.686197 0.879502
vt 0.677543 0.879502
vt 0.686197 0.887853
vt 0.677543 0.887853
vt 0.928222 0.780850
vt 0.928221 0.885503
vt 0.930745 0.780390
vt 0.930743 0.885963
vt 0.933267 0.780850
vt 0.933266 0.885503
vt 0.186283 0.004795
vt 0.186280 0.352979
vt 0.194676 0.003265
vt 0.194674 0.354510
vt 0.203068 0.004795
vt 0.203067 0.352980
vt 0.900649 0.232764
vt 0.909303 0.232764
vt 0.900649 0.224413
vt 0.909303 0.224413
vt 0.900649 0.216061
vt 0.909303 0.216061
vt 0.988276 0.882525
vt 0.988276 0.783787
s 1
usemtl BaseMaterial
f 1/1/1 2/2/1 4/3/2 3/4/2
f 3/5/2 4/6/2 6/7/3 5/8/3
f 5/8/3 6/7/3 8/9/4 7/10/4
f 7/10/4 8/9/4 10/11/5 9/12/5
f 9/12/5 10/11/5 12/13/6 11/14/6
f 11/14/6 12/13/6 14/15/7 13/16/7
f 4/17/8 2/18/8 16/19/8 14/20/8 12/21/8 10/22/8 8/23/8 6/24/8
f 13/16/7 14/15/7 16/25/9 15/26/9
f 15/26/9 16/25/9 2/2/1 1/1/1
f 1/27/10 3/28/10 5/29/10 7/30/10 9/31/10 11/32/10 13/33/10 15/34/10
f 18/35/9 17/36/9 31/37/1 32/38/1
f 22/39/6 21/40/6 19/41/7 20/42/7
f 24/43/5 23/44/5 21/40/6 22/39/6
f 26/45/4 25/46/4 23/44/5 24/43/5
f 28/47/3 27/48/3 25/46/4 26/45/4
f 30/49/2 29/50/2 27/48/3 28/47/3
f 29/51/8 31/52/8 17/53/8 19/54/8 21/55/8 23/56/8 25/57/8 27/58/8
f 32/38/1 31/37/1 29/59/2 30/60/2
f 20/42/7 19/41/7 17/36/9 18/35/9
f 32/61/10 30/62/10 28/63/10 26/64/10 24/65/10 22/66/10 20/67/10 18/68/10
f 33/69/11 35/70/12 36/71/12 34/72/11
f 35/73/12 37/74/13 38/75/13 36/76/12
f 37/74/13 39/77/14 40/78/14 38/75/13
f 39/77/14 41/79/15 42/80/15 40/78/14
f 41/79/15 43/81/16 44/82/16 42/80/15
f 43/81/16 45/83/17 46/84/17 44/82/16
f 36/85/8 38/86/8 40/87/8 42/88/8 44/89/8 46/90/8 48/91/8 34/92/8
f 45/83/17 47/93/18 48/94/18 46/84/17
f 47/93/18 33/69/11 34/72/11 48/94/18
f 33/95/10 47/96/10 45/97/10 43/98/10 41/99/10 39/100/10 37/101/10 35/102/10
f 50/103/18 64/104/11 63/105/11 49/106/18
f 54/107/16 52/108/17 51/109/17 53/110/16
f 56/111/15 54/107/16 53/110/16 55/112/15
f 58/113/14 56/111/15 55/112/15 57/114/14
f 60/115/13 58/113/14 57/114/14 59/116/13
f 62/117/12 60/115/13 59/116/13 61/118/12
f 61/119/8 59/120/8 57/121/8 55/122/8 53/123/8 51/124/8 49/125/8 63/126/8
f 64/104/11 62/127/12 61/128/12 63/105/11
f 52/108/17 50/103/18 49/106/18 51/109/17
f 64/129/10 50/130/10 52/131/10 54/132/10 56/133/10 58/134/10 60/135/10 62/136/10
f 65/137/15 67/138/16 68/139/16 66/140/15
f 67/141/16 69/142/17 70/143/17 68/144/16
f 69/142/17 71/145/18 72/146/18 70/143/17
f 71/145/18 73/147/11 74/148/11 72/146/18
f 73/147/11 75/149/12 76/150/12 74/148/11
f 75/149/12 77/151/13 78/152/13 76/150/12
f 68/153/8 70/154/8 72/155/8 74/156/8 76/157/8 78/158/8 80/159/8 66/160/8
f 77/151/13 79/161/14 80/162/14 78/152/13
f 79/161/14 65/137/15 66/140/15 80/162/14
f 65/163/10 79/164/10 77/165/10 75/166/10 73/167/10 71/168/10 69/169/10 67/170/10
f 82/171/14 96/172/15 95/173/15 81/174/14
f 86/175/12 84/176/13 83/177/13 85/178/12
f 88/179/11 86/175/12 85/178/12 87/180/11
f 90/181/18 88/179/11 87/180/11 89/182/18
f 92/183/17 90/181/18 89/182/18 91/184/17
f 94/185/16 92/183/17 91/184/17 93/186/16
f 93/187/8 91/188/8 89/189/8 87/190/8 85/191/8 83/192/8 81/193/8 95/194/8
f 96/172/15 94/195/16 93/196/16 95/173/15
f 84/176/13 82/171/14 81/174/14 83/177/13
f 96/197/10 82/198/10 84/199/10 86/200/10 88/201/10 90/202/10 92/203/10 94/204/10
f 97/205/5 98/206/5 100/207/6 99/208/6
f 99/209/6 100/210/6 102/211/7 101/212/7
f 101/212/7 102/211/7 104/213/9 103/214/9
f 103/214/9 104/213/9 106/215/1 105/216/1
f 105/216/1 106/215/1 108/217/2 107/218/2
f 107/218/2 108/217/2 110/219/3 109/220/3
f 100/221/8 98/222/8 112/223/8 110/224/8 108/225/8 106/226/8 104/227/8 102/228/8
f 109/220/3 110/219/3 112/229/4 111/230/4
f 111/230/4 112/229/4 98/206/5 97/205/5
f 97/231/10 99/232/10 101/233/10 103/234/10 105/235/10 107/236/10 109/237/10 111/238/10
f 114/239/4 113/240/4 127/241/5 128/242/5
f 118/243/2 117/244/2 115/245/3 116/246/3
f 120/247/1 119/248/1 117/244/2 118/243/2
f 122/249/9 121/250/9 119/248/1 120/247/1
f 124/251/7 123/252/7 121/250/9 122/249/9
f 126/253/6 125/254/6 123/252/7 124/251/7
f 125/255/8 127/256/8 113/257/8 115/258/8 117/259/8 119/260/8 121/261/8 123/262/8
f 128/242/5 127/241/5 125/263/6 126/264/6
f 116/246/3 115/245/3 113/240/4 114/239/4
f 128/265/10 126/266/10 124/267/10 122/268/10 120/269/10 118/270/10 116/271/10 114/272/10
f 146/273/19 139/274/19 158/275/19 159/276/19
f 138/277/20 135/278/20 130/279/20 136/280/20
f 131/281/20 133/282/20 134/283/20 129/284/20
f 137/285/20 132/286/20 135/287/20 138/288/20
f 147/289/10 146/290/10 135/291/10 132/292/10
f 134/293/20 138/277/20 136/280/20 129/294/20
f 129/295/21 136/296/21 145/297/21 142/298/21
f 136/296/21 130/299/21 139/300/21 145/297/21
f 144/301/8 141/302/8 131/303/8 129/304/8
f 228/305/8 144/306/8 129/307/8 213/308/8
f 223/309/10 139/310/10 146/311/10 230/312/10
f 149/313/22 148/314/23 146/290/10 147/289/10
f 227/315/24 232/316/25 148/317/23 143/318/24
f 140/319/26 143/320/26 148/314/23 149/313/22
f 147/321/10 231/322/10 233/323/27 149/324/22
f 151/325/28 138/326/28 134/327/28 150/328/28
f 133/329/10 153/330/10 150/331/10 134/332/10
f 232/316/25 230/312/10 146/311/10 148/317/23
f 139/333/21 223/334/21 229/335/21 145/336/21
f 224/337/21 238/338/21 154/339/21 140/340/21
f 150/341/10 234/342/10 226/343/10 142/344/10
f 144/345/28 228/346/28 234/347/28 150/348/28
f 145/349/19 151/350/19 150/351/19 142/352/19
f 137/353/8 138/326/8 151/325/8 152/354/8
f 141/355/19 144/356/19 150/357/19 153/358/19
f 155/359/28 239/360/28 227/361/28 143/362/28
f 143/363/19 140/364/19 154/365/19 155/366/19
f 154/367/10 238/368/10 239/369/10 155/370/10
f 182/371/24 266/372/24 275/373/25 191/374/23
f 139/300/21 130/299/21 156/375/21 158/376/21
f 135/377/28 146/273/28 159/276/28 157/378/28
f 130/279/20 135/278/20 157/379/20 156/380/20
f 132/381/21 160/382/21 168/383/21 147/384/21
f 171/385/28 255/386/28 268/387/28 184/388/28
f 175/389/20 133/390/20 131/391/20 173/392/20
f 158/393/21 156/394/21 240/395/21 242/396/21
f 240/397/10 156/398/10 166/399/10 250/400/10
f 209/401/20 167/402/20 160/403/20 202/404/20
f 166/405/10 156/406/10 167/407/10 169/408/10
f 159/409/19 166/410/19 169/411/19 168/412/19
f 157/413/8 159/414/8 168/383/8 160/382/8
f 156/415/20 157/416/20 160/417/20 167/418/20
f 288/419/21 204/420/21 206/421/21 290/422/21
f 173/423/8 131/303/8 141/302/8 183/424/8
f 153/330/21 133/329/21 137/353/21 152/354/21
f 179/425/20 137/426/20 133/390/20 175/389/20
f 202/404/20 160/403/20 132/427/20 174/428/20
f 174/428/20 132/427/20 137/426/20 179/425/20
f 269/429/29 185/430/29 190/431/22 274/432/27
f 169/411/19 211/433/19 210/434/19 168/412/19
f 210/435/19 189/436/19 147/437/19 168/438/19
f 183/439/19 141/355/19 153/358/19 195/440/19
f 170/441/8 254/442/8 296/443/8 212/444/8
f 295/445/10 293/446/10 251/447/10 253/448/10
f 188/449/19 201/450/19 200/451/19 181/452/19
f 180/453/20 178/454/20 172/455/20 177/456/20
f 173/457/20 171/458/20 176/459/20 175/460/20
f 179/461/20 180/462/20 177/463/20 174/464/20
f 189/465/10 174/466/10 177/467/10 188/468/10
f 176/469/20 171/470/20 178/454/20 180/453/20
f 171/471/28 184/472/28 187/473/28 178/474/28
f 178/474/28 187/473/28 181/475/28 172/476/28
f 186/477/8 171/478/8 173/423/8 183/424/8
f 270/479/8 255/480/8 171/481/8 186/482/8
f 265/483/10 272/484/10 188/485/10 181/486/10
f 191/487/23 189/465/10 188/468/10 190/488/22
f 273/489/10 231/322/10 147/321/10 189/490/10
f 182/491/26 191/487/23 190/488/22 185/492/26
f 191/374/23 275/373/25 273/489/10 189/490/10
f 193/493/21 192/494/21 176/495/21 180/496/21
f 175/497/10 176/498/10 192/499/10 195/500/10
f 274/432/27 190/431/22 188/485/10 272/484/10
f 187/501/28 271/502/28 265/503/28 181/504/28
f 266/505/28 182/506/28 196/507/28 280/508/28
f 184/509/10 268/510/10 276/511/10 192/512/10
f 192/513/21 276/514/21 270/515/21 186/516/21
f 187/517/19 184/518/19 192/519/19 193/520/19
f 179/521/8 194/522/8 193/493/8 180/496/8
f 183/439/19 195/440/19 192/523/19 186/524/19
f 185/525/21 269/526/21 281/527/21 197/528/21
f 185/529/19 197/530/19 196/531/19 182/532/19
f 197/533/10 281/534/10 280/535/10 196/536/10
f 205/537/28 289/538/28 291/539/28 207/540/28
f 181/475/28 200/541/28 198/542/28 172/476/28
f 177/543/21 199/544/21 201/450/21 188/449/21
f 172/455/20 198/545/20 199/546/20 177/456/20
f 174/466/28 189/465/28 210/547/28 202/548/28
f 165/549/21 249/550/21 247/551/21 163/552/21
f 211/553/10 169/408/10 167/407/10 209/554/10
f 200/555/28 284/556/28 282/557/28 198/558/28
f 282/559/10 292/560/10 208/561/10 198/562/10
f 246/563/28 248/564/28 164/565/28 162/566/28
f 208/567/10 211/553/10 209/554/10 198/568/10
f 201/569/19 210/434/19 211/433/19 208/570/19
f 199/571/8 202/548/8 210/547/8 201/572/8
f 198/573/20 209/574/20 202/575/20 199/576/20
f 142/577/21 226/578/21 213/579/21 129/580/21
f 195/500/28 194/522/28 179/521/28 175/497/28
f 230/581/20 243/582/20 242/583/20 223/584/20
f 222/585/19 220/586/19 214/587/19 219/588/19
f 215/589/19 213/590/19 218/591/19 217/592/19
f 221/593/19 222/594/19 219/595/19 216/596/19
f 231/597/10 216/598/10 219/599/10 230/600/10
f 218/601/19 213/602/19 220/586/19 222/585/19
f 213/603/21 226/604/21 229/605/21 220/606/21
f 220/606/21 229/605/21 223/607/21 214/608/21
f 228/609/8 213/610/8 215/611/8 225/612/8
f 233/613/27 231/597/10 230/600/10 232/614/25
f 224/615/30 233/613/27 232/614/25 227/616/30
f 235/617/28 234/618/28 218/619/28 222/620/28
f 217/621/10 218/622/10 234/623/10 237/624/10
f 229/625/20 226/626/20 234/627/20 235/628/20
f 221/629/8 236/630/8 235/617/8 222/620/8
f 225/631/20 237/632/20 234/633/20 228/634/20
f 227/635/20 239/636/20 238/637/20 224/638/20
f 223/607/21 242/639/21 240/640/21 214/608/21
f 219/641/28 241/642/28 243/582/28 230/581/28
f 214/587/19 240/643/19 241/644/19 219/588/19
f 216/598/21 231/597/21 252/645/21 244/646/21
f 259/647/19 257/648/19 215/649/19 217/650/19
f 250/651/28 166/652/28 159/653/28 243/654/28
f 243/655/8 159/656/8 158/657/8 242/658/8
f 293/659/19 286/660/19 244/661/19 251/662/19
f 250/663/10 253/448/10 251/447/10 240/664/10
f 243/665/20 252/666/20 253/667/20 250/668/20
f 241/669/8 244/646/8 252/645/8 243/670/8
f 240/671/19 251/672/19 244/673/19 241/674/19
f 257/675/8 267/676/8 225/612/8 215/611/8
f 237/624/21 236/630/21 221/629/21 217/621/21
f 263/677/19 259/647/19 217/650/19 221/678/19
f 286/660/19 258/679/19 216/680/19 244/661/19
f 258/679/19 263/677/19 221/678/19 216/680/19
f 252/666/20 294/681/20 295/682/20 253/667/20
f 294/683/20 252/684/20 231/685/20 273/686/20
f 267/687/20 279/688/20 237/632/20 225/631/20
f 272/689/20 265/690/20 284/691/20 285/692/20
f 264/693/19 261/694/19 256/695/19 262/696/19
f 257/697/19 259/698/19 260/699/19 255/700/19
f 263/701/19 258/702/19 261/703/19 264/704/19
f 273/705/10 272/706/10 261/707/10 258/708/10
f 260/709/19 264/693/19 262/696/19 255/710/19
f 255/711/28 262/712/28 271/713/28 268/714/28
f 262/712/28 256/715/28 265/716/28 271/713/28
f 270/717/8 267/676/8 257/675/8 255/718/8
f 275/719/25 274/720/27 272/706/10 273/705/10
f 266/721/30 269/722/30 274/720/27 275/719/25
f 277/723/21 264/724/21 260/725/21 276/726/21
f 259/727/10 279/728/10 276/729/10 260/730/10
f 271/731/20 277/732/20 276/733/20 268/734/20
f 263/735/8 264/724/8 277/723/8 278/736/8
f 267/687/20 270/737/20 276/738/20 279/688/20
f 269/739/20 266/740/20 280/741/20 281/742/20
f 265/716/28 256/715/28 282/743/28 284/744/28
f 261/745/21 272/689/21 285/692/21 283/746/21
f 256/695/19 261/694/19 283/747/19 282/748/19
f 258/749/28 286/750/28 294/751/28 273/752/28
f 292/753/21 285/754/21 201/755/21 208/756/21
f 285/757/8 284/758/8 200/759/8 201/760/8
f 292/761/10 282/762/10 293/446/10 295/445/10
f 285/763/20 292/764/20 295/682/20 294/681/20
f 283/765/8 285/766/8 294/751/8 286/750/8
f 282/767/19 283/768/19 286/769/19 293/770/19
f 279/728/28 259/727/28 263/735/28 278/736/28
f 149/324/22 233/323/27 224/771/29 140/772/29
f 297/773/21 298/774/21 300/775/21 299/776/21
f 366/777/10 310/778/10 314/779/10 378/780/10
f 303/781/28 304/782/28 302/783/28 301/784/28
f 308/785/10 326/786/10 322/787/10 316/788/10
f 311/789/20 316/790/20 322/791/20 329/792/20
f 301/793/20 302/794/20 377/795/20 370/796/20
f 313/797/20 314/798/20 361/799/20 358/800/20
f 312/801/20 315/802/20 345/803/20 342/804/20
f 374/805/31 303/781/32 301/784/32 370/806/31
f 304/807/10 365/808/10 377/809/10 302/810/10
f 306/811/33 350/812/34 357/813/34 312/814/33
f 325/815/10 300/816/10 298/817/10 321/818/10
f 309/819/10 338/820/10 345/821/10 315/822/10
f 310/778/10 354/823/10 361/824/10 314/779/10
f 317/825/31 307/826/32 311/827/32 329/828/31
f 307/826/33 334/829/34 341/830/34 311/827/33
f 330/831/20 321/832/20 298/833/20 297/834/20
f 333/835/31 306/811/32 312/814/32 342/836/31
f 341/837/20 346/838/20 316/790/20 311/789/20
f 337/839/10 308/785/10 316/788/10 346/840/10
f 349/841/31 305/842/32 313/843/32 358/844/31
f 357/845/20 362/846/20 315/802/20 312/801/20
f 353/847/10 309/819/10 315/822/10 362/848/10
f 305/842/33 373/849/34 369/850/34 313/843/33
f 369/851/20 378/852/20 314/798/20 313/797/20
f 317/825/31 329/828/31 331/853/35 319/854/35
f 319/854/35 331/853/35 332/855/36 320/856/36
f 320/856/36 332/855/36 330/857/34 318/858/34
f 325/815/10 321/818/10 323/859/10 327/860/10
f 327/860/10 323/859/10 324/861/10 328/862/10
f 328/862/10 324/861/10 322/787/10 326/786/10
f 321/832/20 330/831/20 332/863/20 323/864/20
f 323/864/20 332/863/20 331/865/20 324/866/20
f 324/866/20 331/865/20 329/792/20 322/791/20
f 346/838/20 341/837/20 343/867/20 348/868/20
f 348/868/20 343/867/20 344/869/20 347/870/20
f 347/870/20 344/869/20 342/804/20 345/803/20
f 333/835/31 342/836/31 344/871/35 335/872/35
f 335/872/35 344/871/35 343/873/36 336/874/36
f 336/874/36 343/873/36 341/830/34 334/829/34
f 337/839/10 346/840/10 348/875/10 339/876/10
f 339/876/10 348/875/10 347/877/10 340/878/10
f 340/878/10 347/877/10 345/821/10 338/820/10
f 362/846/20 357/845/20 359/879/20 364/880/20
f 364/880/20 359/879/20 360/881/20 363/882/20
f 363/882/20 360/881/20 358/800/20 361/799/20
f 349/841/31 358/844/31 360/883/35 351/884/35
f 351/884/35 360/883/35 359/885/36 352/886/36
f 352/886/36 359/885/36 357/813/34 350/812/34
f 353/847/10 362/848/10 364/887/10 355/888/10
f 355/888/10 364/887/10 363/889/10 356/890/10
f 356/890/10 363/889/10 361/824/10 354/823/10
f 378/852/20 369/851/20 371/891/20 380/892/20
f 380/892/20 371/891/20 372/893/20 379/894/20
f 379/894/20 372/893/20 370/796/20 377/795/20
f 366/777/10 378/780/10 380/895/10 368/896/10
f 368/896/10 380/895/10 379/897/10 367/898/10
f 367/898/10 379/897/10 377/809/10 365/808/10
f 374/805/31 370/806/31 372/899/35 376/900/35
f 376/900/35 372/899/35 371/901/36 375/902/36
f 375/902/36 371/901/36 369/850/34 373/849/34
f 299/903/33 318/858/34 330/857/34 297/904/33
f 381/905/20 382/906/20 384/907/20 383/908/20
f 387/909/19 388/910/19 386/911/19 385/912/19
f 398/913/21 403/914/21 392/915/21 391/916/21
f 410/917/21 415/918/21 393/919/21 390/920/21
f 422/921/21 427/922/21 394/923/21 389/924/21
f 443/925/37 387/926/38 385/927/38 439/928/37
f 390/929/8 423/930/39 430/931/39 396/932/8
f 398/933/37 391/934/8 395/935/8 406/936/37
f 383/937/21 384/938/21 402/939/21 399/940/21
f 391/934/8 411/941/39 418/942/39 395/935/8
f 410/943/37 390/929/8 396/932/8 419/944/37
f 391/916/21 392/915/21 414/945/21 411/946/21
f 422/947/37 389/948/8 397/949/8 431/950/37
f 390/920/21 393/919/21 426/951/21 423/952/21
f 389/948/8 442/953/39 438/954/39 397/949/8
f 389/924/21 394/923/21 435/955/21 442/956/21
f 443/957/21 434/958/21 388/959/21 387/960/21
f 403/914/21 398/913/21 400/961/21 405/962/21
f 405/962/21 400/961/21 401/963/21 404/964/21
f 404/964/21 401/963/21 399/940/21 402/939/21
f 398/933/37 406/936/37 408/965/40 400/966/40
f 400/966/40 408/965/40 409/967/41 401/968/41
f 401/968/41 409/967/41 407/969/39 399/970/39
f 415/918/21 410/917/21 412/971/21 417/972/21
f 417/972/21 412/971/21 413/973/21 416/974/21
f 416/974/21 413/973/21 411/946/21 414/945/21
f 410/943/37 419/944/37 421/975/40 412/976/40
f 412/976/40 421/975/40 420/977/41 413/978/41
f 413/978/41 420/977/41 418/942/39 411/941/39
f 427/922/21 422/921/21 424/979/21 429/980/21
f 429/980/21 424/979/21 425/981/21 428/982/21
f 428/982/21 425/981/21 423/952/21 426/951/21
f 422/947/37 431/950/37 433/983/40 424/984/40
f 424/984/40 433/983/40 432/985/41 425/986/41
f 425/986/41 432/985/41 430/931/39 423/930/39
f 443/925/37 439/928/37 441/987/40 445/988/40
f 445/988/40 441/987/40 440/989/41 444/990/41
f 444/990/41 440/989/41 438/954/39 442/953/39
f 434/958/21 443/957/21 445/991/21 436/992/21
f 436/992/21 445/991/21 444/993/21 437/994/21
f 437/994/21 444/993/21 442/956/21 435/955/21
f 383/995/42 399/970/39 407/969/39 381/996/42
f 446/997/21 447/998/21 449/999/21 448/1000/21
f 515/1001/10 459/1002/10 463/1003/10 527/1004/10
f 452/1005/28 453/1006/28 451/1007/28 450/1008/28
f 457/1009/10 475/1010/10 471/1011/10 465/1012/10
f 466/1013/19 475/1014/19 457/1015/19 456/1016/19
f 482/1017/19 487/1018/19 458/1019/19 455/1020/19
f 498/1021/19 503/1022/19 459/1023/19 454/1024/19
f 523/1025/31 452/1005/32 450/1008/32 519/1026/31
f 453/1006/10 514/1027/10 526/1028/10 451/1007/10
f 455/1029/33 499/1030/34 506/1031/34 461/1032/33
f 474/1033/10 449/1034/10 447/1035/10 470/1036/10
f 458/1037/10 487/1038/10 494/1039/10 464/1040/10
f 459/1002/10 503/1041/10 510/1042/10 463/1003/10
f 466/1043/31 456/1044/32 460/1045/32 478/1046/31
f 448/1047/19 449/1048/19 474/1049/19 467/1050/19
f 456/1044/33 483/1051/34 490/1052/34 460/1045/33
f 482/1053/31 455/1029/32 461/1032/32 491/1054/31
f 456/1016/19 457/1015/19 486/1055/19 483/1056/19
f 486/1057/10 457/1009/10 465/1012/10 495/1058/10
f 498/1059/31 454/1060/32 462/1061/32 507/1062/31
f 455/1020/19 458/1019/19 502/1063/19 499/1064/19
f 502/1065/10 458/1037/10 464/1040/10 511/1066/10
f 454/1060/33 522/1067/34 518/1068/34 462/1061/33
f 454/1024/19 459/1023/19 515/1069/19 522/1070/19
f 523/1071/19 514/1072/19 453/1073/19 452/1074/19
f 475/1014/19 466/1013/19 468/1075/19 477/1076/19
f 477/1076/19 468/1075/19 469/1077/19 476/1078/19
f 476/1078/19 469/1077/19 467/1050/19 474/1049/19
f 466/1043/31 478/1046/31 480/1079/35 468/1080/35
f 468/1080/35 480/1079/35 481/1081/36 469/1082/36
f 469/1082/36 481/1081/36 479/1083/34 467/1084/34
f 474/1033/10 470/1036/10 472/1085/10 476/1086/10
f 476/1086/10 472/1085/10 473/1087/10 477/1088/10
f 477/1088/10 473/1087/10 471/1011/10 475/1010/10
f 487/1018/19 482/1017/19 484/1089/19 489/1090/19
f 489/1090/19 484/1089/19 485/1091/19 488/1092/19
f 488/1092/19 485/1091/19 483/1056/19 486/1055/19
f 482/1053/31 491/1054/31 493/1093/35 484/1094/35
f 484/1094/35 493/1093/35 492/1095/36 485/1096/36
f 485/1096/36 492/1095/36 490/1052/34 483/1051/34
f 486/1057/10 495/1058/10 497/1097/10 488/1098/10
f 488/1098/10 497/1097/10 496/1099/10 489/1100/10
f 489/1100/10 496/1099/10 494/1039/10 487/1038/10
f 503/1022/19 498/1021/19 500/1101/19 505/1102/19
f 505/1102/19 500/1101/19 501/1103/19 504/1104/19
f 504/1104/19 501/1103/19 499/1064/19 502/1063/19
f 498/1059/31 507/1062/31 509/1105/35 500/1106/35
f 500/1106/35 509/1105/35 508/1107/36 501/1108/36
f 501/1108/36 508/1107/36 506/1031/34 499/1030/34
f 502/1065/10 511/1066/10 513/1109/10 504/1110/10
f 504/1110/10 513/1109/10 512/1111/10 505/1112/10
f 505/1112/10 512/1111/10 510/1042/10 503/1041/10
f 515/1001/10 527/1004/10 529/1113/10 517/1114/10
f 517/1114/10 529/1113/10 528/1115/10 516/1116/10
f 516/1116/10 528/1115/10 526/1028/10 514/1027/10
f 523/1025/31 519/1026/31 521/1117/35 525/1118/35
f 525/1118/35 521/1117/35 520/1119/36 524/1120/36
f 524/1120/36 520/1119/36 518/1068/34 522/1067/34
f 514/1072/19 523/1071/19 525/1121/19 516/1122/19
f 516/1122/19 525/1121/19 524/1123/19 517/1124/19
f 517/1124/19 524/1123/19 522/1070/19 515/1069/19
f 448/1000/33 467/1084/34 479/1083/34 446/997/33
f 530/1125/28 532/1126/28 533/1127/28 531/1128/28
f 599/1129/10 611/1130/10 547/1131/10 543/1132/10
f 536/1133/21 534/1134/21 535/1135/21 537/1136/21
f 541/1137/10 549/1138/10 555/1139/10 559/1140/10
f 544/1141/20 562/1142/20 555/1143/20 549/1144/20
f 534/1145/20 603/1146/20 610/1147/20 535/1148/20
f 546/1149/20 591/1150/20 594/1151/20 547/1152/20
f 545/1153/20 575/1154/20 578/1155/20 548/1156/20
f 607/1157/34 603/1158/34 534/1134/33 536/1133/33
f 537/1159/10 535/1160/10 610/1161/10 598/1162/10
f 539/1163/32 545/1164/32 590/1165/31 583/1166/31
f 558/1167/10 554/1168/10 531/1169/10 533/1170/10
f 542/1171/10 548/1172/10 578/1173/10 571/1174/10
f 543/1132/10 547/1131/10 594/1175/10 587/1176/10
f 550/1177/34 562/1178/34 544/1179/33 540/1180/33
f 540/1180/32 544/1179/32 574/1181/31 567/1182/31
f 563/1183/20 530/1184/20 531/1185/20 554/1186/20
f 566/1187/34 575/1188/34 545/1164/33 539/1163/33
f 574/1189/20 544/1141/20 549/1144/20 579/1190/20
f 570/1191/10 579/1192/10 549/1138/10 541/1137/10
f 582/1193/34 591/1194/34 546/1195/33 538/1196/33
f 590/1197/20 545/1153/20 548/1156/20 595/1198/20
f 586/1199/10 595/1200/10 548/1172/10 542/1171/10
f 538/1196/32 546/1195/32 602/1201/31 606/1202/31
f 602/1203/20 546/1149/20 547/1152/20 611/1204/20
f 550/1177/34 552/1205/36 564/1206/36 562/1178/34
f 552/1205/36 553/1207/35 565/1208/35 564/1206/36
f 553/1207/35 551/1209/31 563/1210/31 565/1208/35
f 558/1167/10 560/1211/10 556/1212/10 554/1168/10
f 560/1211/10 561/1213/10 557/1214/10 556/1212/10
f 561/1213/10 559/1140/10 555/1139/10 557/1214/10
f 554/1186/20 556/1215/20 565/1216/20 563/1183/20
f 556/1215/20 557/1217/20 564/1218/20 565/1216/20
f 557/1217/20 555/1143/20 562/1142/20 564/1218/20
f 579/1190/20 581/1219/20 576/1220/20 574/1189/20
f 581/1219/20 580/1221/20 577/1222/20 576/1220/20
f 580/1221/20 578/1155/20 575/1154/20 577/1222/20
f 566/1187/34 568/1223/36 577/1224/36 575/1188/34
f 568/1223/36 569/1225/35 576/1226/35 577/1224/36
f 569/1225/35 567/1182/31 574/1181/31 576/1226/35
f 570/1191/10 572/1227/10 581/1228/10 579/1192/10
f 572/1227/10 573/1229/10 580/1230/10 581/1228/10
f 573/1229/10 571/1174/10 578/1173/10 580/1230/10
f 595/1198/20 597/1231/20 592/1232/20 590/1197/20
f 597/1231/20 596/1233/20 593/1234/20 592/1232/20
f 596/1233/20 594/1151/20 591/1150/20 593/1234/20
f 582/1193/34 584/1235/36 593/1236/36 591/1194/34
f 584/1235/36 585/1237/35 592/1238/35 593/1236/36
f 585/1237/35 583/1166/31 590/1165/31 592/1238/35
f 586/1199/10 588/1239/10 597/1240/10 595/1200/10
f 588/1239/10 589/1241/10 596/1242/10 597/1240/10
f 589/1241/10 587/1176/10 594/1175/10 596/1242/10
f 611/1204/20 613/1243/20 604/1244/20 602/1203/20
f 613/1243/20 612/1245/20 605/1246/20 604/1244/20
f 612/1245/20 610/1147/20 603/1146/20 605/1246/20
f 599/1129/10 601/1247/10 613/1248/10 611/1130/10
f 601/1247/10 600/1249/10 612/1250/10 613/1248/10
f 600/1249/10 598/1162/10 610/1161/10 612/1250/10
f 607/1157/34 609/1251/36 605/1252/36 603/1158/34
f 609/1251/36 608/1253/35 604/1254/35 605/1252/36
f 608/1253/35 606/1202/31 602/1201/31 604/1254/35
f 532/1255/32 530/1256/32 563/1210/31 551/1209/31
f 614/1257/20 616/1258/20 617/1259/20 615/1260/20
f 620/1261/19 618/1262/19 619/1263/19 621/1264/19
f 631/1265/28 624/1266/28 625/1267/28 636/1268/28
f 643/1269/28 623/1270/28 626/1271/28 648/1272/28
f 655/1273/28 622/1274/28 627/1275/28 660/1276/28
f 676/1277/37 672/1278/37 618/1279/38 620/1280/38
f 623/1281/8 629/1282/8 663/1283/39 656/1284/39
f 631/1285/37 639/1286/37 628/1287/8 624/1288/8
f 616/1289/28 632/1290/28 635/1291/28 617/1292/28
f 624/1288/8 628/1287/8 651/1293/39 644/1294/39
f 643/1295/37 652/1296/37 629/1282/8 623/1281/8
f 624/1266/28 644/1297/28 647/1298/28 625/1267/28
f 655/1299/37 664/1300/37 630/1301/8 622/1302/8
f 623/1270/28 656/1303/28 659/1304/28 626/1271/28
f 622/1302/8 630/1301/8 671/1305/39 675/1306/39
f 622/1274/28 675/1307/28 668/1308/28 627/1275/28
f 676/1309/28 620/1310/28 621/1311/28 667/1312/28
f 636/1268/28 638/1313/28 633/1314/28 631/1265/28
f 638/1313/28 637/1315/28 634/1316/28 633/1314/28
f 637/1315/28 635/1291/28 632/1290/28 634/1316/28
f 631/1285/37 633/1317/40 641/1318/40 639/1286/37
f 633/1317/40 634/1319/41 642/1320/41 641/1318/40
f 634/1319/41 632/1321/39 640/1322/39 642/1320/41
f 648/1272/28 650/1323/28 645/1324/28 643/1269/28
f 650/1323/28 649/1325/28 646/1326/28 645/1324/28
f 649/1325/28 647/1298/28 644/1297/28 646/1326/28
f 643/1295/37 645/1327/40 654/1328/40 652/1296/37
f 645/1327/40 646/1329/41 653/1330/41 654/1328/40
f 646/1329/41 644/1294/39 651/1293/39 653/1330/41
f 660/1276/28 662/1331/28 657/1332/28 655/1273/28
f 662/1331/28 661/1333/28 658/1334/28 657/1332/28
f 661/1333/28 659/1304/28 656/1303/28 658/1334/28
f 655/1299/37 657/1335/40 666/1336/40 664/1300/37
f 657/1335/40 658/1337/41 665/1338/41 666/1336/40
f 658/1337/41 656/1284/39 663/1283/39 665/1338/41
f 676/1277/37 678/1339/40 674/1340/40 672/1278/37
f 678/1339/40 677/1341/41 673/1342/41 674/1340/40
f 677/1341/41 675/1306/39 671/1305/39 673/1342/41
f 667/1312/28 669/1343/28 678/1344/28 676/1309/28
f 669/1343/28 670/1345/28 677/1346/28 678/1344/28
f 670/1345/28 668/1308/28 675/1307/28 677/1346/28
f 616/1347/42 614/1348/42 640/1322/39 632/1321/39
f 679/1349/28 681/1350/28 682/1351/28 680/1352/28
f 748/1353/10 760/1354/10 696/1355/10 692/1356/10
f 685/1357/21 683/1358/21 684/1359/21 686/1360/21
f 690/1361/10 698/1362/10 704/1363/10 708/1364/10
f 699/1365/19 689/1366/19 690/1367/19 708/1368/19
f 715/1369/19 688/1370/19 691/1371/19 720/1372/19
f 731/1373/19 687/1374/19 692/1375/19 736/1376/19
f 756/1377/34 752/1378/34 683/1358/33 685/1357/33
f 686/1360/10 684/1359/10 759/1379/10 747/1380/10
f 688/1381/32 694/1382/32 739/1383/31 732/1384/31
f 707/1385/10 703/1386/10 680/1387/10 682/1388/10
f 691/1389/10 697/1390/10 727/1391/10 720/1392/10
f 692/1356/10 696/1355/10 743/1393/10 736/1394/10
f 699/1395/34 711/1396/34 693/1397/33 689/1398/33
f 681/1399/19 700/1400/19 707/1401/19 682/1402/19
f 689/1398/32 693/1397/32 723/1403/31 716/1404/31
f 715/1405/34 724/1406/34 694/1382/33 688/1381/33
f 689/1366/19 716/1407/19 719/1408/19 690/1367/19
f 719/1409/10 728/1410/10 698/1362/10 690/1361/10
f 731/1411/34 740/1412/34 695/1413/33 687/1414/33
f 688/1370/19 732/1415/19 735/1416/19 691/1371/19
f 735/1417/10 744/1418/10 697/1390/10 691/1389/10
f 687/1414/32 695/1413/32 751/1419/31 755/1420/31
f 687/1374/19 755/1421/19 748/1422/19 692/1375/19
f 756/1423/19 685/1424/19 686/1425/19 747/1426/19
f 708/1368/19 710/1427/19 701/1428/19 699/1365/19
f 710/1427/19 709/1429/19 702/1430/19 701/1428/19
f 709/1429/19 707/1401/19 700/1400/19 702/1430/19
f 699/1395/34 701/1431/36 713/1432/36 711/1396/34
f 701/1431/36 702/1433/35 714/1434/35 713/1432/36
f 702/1433/35 700/1435/31 712/1436/31 714/1434/35
f 707/1385/10 709/1437/10 705/1438/10 703/1386/10
f 709/1437/10 710/1439/10 706/1440/10 705/1438/10
f 710/1439/10 708/1364/10 704/1363/10 706/1440/10
f 720/1372/19 722/1441/19 717/1442/19 715/1369/19
f 722/1441/19 721/1443/19 718/1444/19 717/1442/19
f 721/1443/19 719/1408/19 716/1407/19 718/1444/19
f 715/1405/34 717/1445/36 726/1446/36 724/1406/34
f 717/1445/36 718/1447/35 725/1448/35 726/1446/36
f 718/1447/35 716/1404/31 723/1403/31 725/1448/35
f 719/1409/10 721/1449/10 730/1450/10 728/1410/10
f 721/1449/10 722/1451/10 729/1452/10 730/1450/10
f 722/1451/10 720/1392/10 727/1391/10 729/1452/10
f 736/1376/19 738/1453/19 733/1454/19 731/1373/19
f 738/1453/19 737/1455/19 734/1456/19 733/1454/19
f 737/1455/19 735/1416/19 732/1415/19 734/1456/19
f 731/1411/34 733/1457/36 742/1458/36 740/1412/34
f 733/1457/36 734/1459/35 741/1460/35 742/1458/36
f 734/1459/35 732/1384/31 739/1383/31 741/1460/35
f 735/1417/10 737/1461/10 746/1462/10 744/1418/10
f 737/1461/10 738/1463/10 745/1464/10 746/1462/10
f 738/1463/10 736/1394/10 743/1393/10 745/1464/10
f 748/1353/10 750/1465/10 762/1466/10 760/1354/10
f 750/1465/10 749/1467/10 761/1468/10 762/1466/10
f 749/1467/10 747/1380/10 759/1379/10 761/1468/10
f 756/1377/34 758/1469/36 754/1470/36 752/1378/34
f 758/1469/36 757/1471/35 753/1472/35 754/1470/36
f 757/1471/35 755/1420/31 751/1419/31 753/1472/35
f 747/1426/19 749/1473/19 758/1474/19 756/1423/19
f 749/1473/19 750/1475/19 757/1476/19 758/1474/19
f 750/1475/19 748/1422/19 755/1421/19 757/1476/19
f 681/1350/32 679/1349/32 712/1436/31 700/1435/31
f 802/1477/43 785/1478/44 780/1479/44 818/1480/43
f 765/1481/45 766/1482/46 770/1483/47 769/1484/48
f 768/1485/49 868/1486/49 878/1487/49 764/1488/49
f 767/1489/50 768/1490/51 764/1491/52 763/1492/53
f 882/1493/54 763/1494/53 764/1495/52 878/1496/55
f 781/1497/56 817/1498/8 863/1499/8 772/1500/56
f 852/1501/57 774/1502/58 775/1503/58 828/1504/59
f 782/1505/60 822/1506/61 858/1507/61 771/1508/60
f 766/1509/62 832/1510/62 813/1511/62 770/1512/62
f 818/1513/8 780/1514/63 773/1515/63 862/1516/8
f 847/1517/55 771/1518/58 778/1519/58 833/1520/54
f 779/1521/64 873/1522/65 883/1523/65 774/1524/64
f 780/1514/63 807/1525/66 853/1526/66 773/1515/63
f 776/1527/67 827/1528/68 793/1529/68 785/1530/67
f 857/1531/59 772/1532/58 777/1533/58 843/1534/57
f 862/1535/69 773/1536/58 776/1537/58 838/1538/69
f 783/1539/70 798/1540/71 822/1541/72 782/1542/70
f 838/1543/10 776/1527/67 785/1530/67 802/1544/10
f 784/1545/70 803/1546/73 817/1547/73 781/1548/70
f 777/1549/74 837/1550/10 803/1551/10 784/1552/74
f 792/1553/75 786/1554/44 779/1555/44 808/1556/76
f 785/1478/70 793/1557/72 807/1558/71 780/1479/70
f 773/1536/77 853/1559/78 827/1560/79 776/1537/77
f 823/1561/61 781/1497/56 772/1500/56 857/1562/61
f 833/1563/62 778/1564/80 783/1565/80 812/1566/62
f 808/1567/66 779/1521/64 774/1524/64 852/1568/66
f 843/1569/81 777/1549/74 784/1552/74 797/1570/81
f 812/1571/82 783/1539/44 782/1542/44 788/1572/83
f 828/1573/68 775/1574/84 786/1575/84 792/1576/68
f 797/1577/76 784/1545/44 781/1548/44 823/1578/75
f 788/1579/85 782/1505/60 771/1508/60 847/1580/85
f 770/1581/47 813/1582/86 787/1583/87 769/1584/48
f 768/1585/51 767/1586/50 872/1587/82 868/1588/83
f 778/1564/80 842/1589/81 798/1590/81 783/1565/80
f 867/1591/87 873/1592/86 779/1555/70 786/1554/70
f 872/1593/65 767/1594/65 763/1595/65 882/1596/65
f 867/1597/49 786/1575/84 775/1574/84 877/1598/49
f 771/1518/77 858/1599/79 842/1600/78 778/1519/77
f 772/1532/77 863/1601/88 837/1602/88 777/1533/77
f 765/1603/45 848/1604/89 832/1605/90 766/1606/46
f 774/1502/77 883/1607/90 877/1608/89 775/1503/77
f 808/1567/66 852/1568/66 854/1609/66 811/1610/66
f 811/1610/66 854/1609/66 855/1611/66 810/1612/66
f 810/1612/66 855/1611/66 856/1613/66 809/1614/66
f 809/1614/66 856/1613/66 853/1526/66 807/1525/66
f 818/1513/8 862/1516/8 864/1615/8 821/1616/8
f 821/1616/8 864/1615/8 865/1617/8 820/1618/8
f 820/1618/8 865/1617/8 866/1619/8 819/1620/8
f 819/1620/8 866/1619/8 863/1499/8 817/1498/8
f 823/1561/61 857/1562/61 859/1621/61 826/1622/61
f 826/1622/61 859/1621/61 860/1623/61 825/1624/61
f 825/1624/61 860/1623/61 861/1625/61 824/1626/61
f 824/1626/61 861/1625/61 858/1507/61 822/1506/61
f 833/1563/62 812/1566/62 814/1627/62 836/1628/62
f 836/1628/62 814/1627/62 815/1629/62 835/1630/62
f 835/1630/62 815/1629/62 816/1631/62 834/1632/62
f 834/1632/62 816/1631/62 813/1511/62 832/1510/62
f 828/1573/68 792/1576/68 794/1633/68 831/1634/68
f 831/1634/68 794/1633/68 795/1635/68 830/1636/68
f 830/1636/68 795/1635/68 796/1637/68 829/1638/68
f 829/1638/68 796/1637/68 793/1529/68 827/1528/68
f 838/1543/10 802/1544/10 804/1639/10 841/1640/10
f 841/1640/10 804/1639/10 805/1641/10 840/1642/10
f 840/1642/10 805/1641/10 806/1643/10 839/1644/10
f 839/1644/10 806/1643/10 803/1551/10 837/1550/10
f 843/1569/81 797/1570/81 799/1645/81 846/1646/81
f 846/1646/81 799/1645/81 800/1647/81 845/1648/81
f 845/1648/81 800/1647/81 801/1649/81 844/1650/81
f 844/1650/81 801/1649/81 798/1590/81 842/1589/81
f 788/1579/85 847/1580/85 849/1651/85 791/1652/85
f 791/1652/85 849/1651/85 850/1653/85 790/1654/85
f 790/1654/85 850/1653/85 851/1655/85 789/1656/85
f 789/1656/85 851/1655/85 848/1657/85 787/1658/85
f 792/1553/75 808/1556/76 811/1659/91 794/1660/92
f 794/1660/92 811/1659/91 810/1661/93 795/1662/94
f 795/1662/94 810/1661/93 809/1663/95 796/1664/96
f 796/1664/96 809/1663/95 807/1558/71 793/1557/72
f 802/1477/43 818/1480/43 821/1665/97 804/1666/97
f 804/1666/97 821/1665/97 820/1667/28 805/1668/28
f 805/1668/28 820/1667/28 819/1669/98 806/1670/98
f 806/1670/98 819/1669/98 817/1547/73 803/1546/73
f 797/1577/76 823/1578/75 826/1671/92 799/1672/91
f 799/1672/91 826/1671/92 825/1673/94 800/1674/93
f 800/1674/93 825/1673/94 824/1675/96 801/1676/95
f 801/1676/95 824/1675/96 822/1541/72 798/1540/71
f 812/1571/82 788/1572/83 791/1677/99 814/1678/100
f 814/1678/100 791/1677/99 790/1679/101 815/1680/102
f 815/1680/102 790/1679/101 789/1681/103 816/1682/104
f 816/1682/104 789/1681/103 787/1583/87 813/1582/86
f 847/1517/55 833/1520/54 836/1683/105 849/1684/106
f 849/1684/106 836/1683/105 835/1685/107 850/1686/108
f 850/1686/108 835/1685/107 834/1687/109 851/1688/110
f 851/1688/110 834/1687/109 832/1605/90 848/1604/89
f 857/1531/59 843/1534/57 846/1689/111 859/1690/112
f 859/1690/112 846/1689/111 845/1691/113 860/1692/114
f 860/1692/114 845/1691/113 844/1693/115 861/1694/116
f 861/1694/116 844/1693/115 842/1600/78 858/1599/79
f 862/1535/69 838/1538/69 841/1695/117 864/1696/117
f 864/1696/117 841/1695/117 840/1697/21 865/1698/21
f 865/1698/21 840/1697/21 839/1699/118 866/1700/118
f 866/1700/118 839/1699/118 837/1602/88 863/1601/88
f 852/1501/57 828/1504/59 831/1701/112 854/1702/111
f 854/1702/111 831/1701/112 830/1703/114 855/1704/113
f 855/1704/113 830/1703/114 829/1705/116 856/1706/115
f 856/1706/115 829/1705/116 827/1560/79 853/1559/78
f 873/1592/86 867/1591/87 869/1707/103 876/1708/104
f 876/1708/104 869/1707/103 870/1709/101 875/1710/102
f 875/1710/102 870/1709/101 871/1711/99 874/1712/100
f 874/1712/100 871/1711/99 868/1588/83 872/1587/82
f 872/1593/65 882/1596/65 884/1713/65 874/1714/65
f 874/1714/65 884/1713/65 885/1715/65 875/1716/65
f 875/1716/65 885/1715/65 886/1717/65 876/1718/65
f 876/1718/65 886/1717/65 883/1523/65 873/1522/65
f 867/1597/49 877/1598/49 879/1719/49 869/1720/49
f 869/1720/49 879/1719/49 880/1721/49 870/1722/49
f 870/1722/49 880/1721/49 881/1723/49 871/1724/49
f 871/1724/49 881/1723/49 878/1487/49 868/1486/49
f 882/1493/54 878/1496/55 881/1725/106 884/1726/105
f 884/1726/105 881/1725/106 880/1727/108 885/1728/107
f 885/1728/107 880/1727/108 879/1729/110 886/1730/109
f 886/1730/109 879/1729/110 877/1608/89 883/1607/90
f 769/1731/85 787/1658/85 848/1657/85 765/1732/85
