{
  "accessors": [
    {
      "bufferView": 2,
      "componentType": 5126,
      "count": 4372,
      "max": [
        25.9842529296875,
        6.397638320922852,
        5.8661417961120605
      ],
      "min": [
        -25.9842529296875,
        -6.397638320922852,
        -5.8661417961120605
      ],
      "type": "VEC3"
    },
    {
      "bufferView": 2,
      "byteOffset": 52464,
      "componentType": 5126,
      "count": 4372,
      "max": [
        1.0,
        1.0,
        1.0
      ],
      "min": [
        -1.0,
        -1.0,
        -1.0
      ],
      "type": "VEC3"
    },
    {
      "bufferView": 3,
      "componentType": 5126,
      "count": 4372,
      "max": [
        0.9999279975891113,
        1.0,
        0.9967634081840515,
        1.0
      ],
      "min": [
        -0.9999527335166931,
        -1.0,
        -1.0,
        1.0
      ],
      "type": "VEC4"
    },
    {
      "bufferView": 1,
      "componentType": 5126,
      "count": 4372,
      "max": [
        0.6359538435935974,
        0.9959777593612671
      ],
      "min": [
        0.005459380801767111,
        0.00446365587413311
      ],
      "type": "VEC2"
    },
    {
      "bufferView": 1,
      "byteOffset": 34976,
      "componentType": 5126,
      "count": 4372,
      "max": [
        0.6359538435935974,
        0.9959777593612671
      ],
      "min": [
        0.005459380801767111,
        0.00446365587413311
      ],
      "type": "VEC2"
    },
    {
      "bufferView": 1,
      "byteOffset": 69952,
      "componentType": 5126,
      "count": 4372,
      "max": [
        0.6359538435935974,
        0.9959777593612671
      ],
      "min": [
        0.005459380801767111,
        0.00446365587413311
      ],
      "type": "VEC2"
    },
    {
      "bufferView": 0,
      "componentType": 5125,
      "count": 22368,
      "type": "SCALAR"
    }
  ],
  "asset": {
    "extras": {
      "author": "plaggy (https://sketchfab.com/plaggy)",
      "license": "CC-BY-4.0 (http://creativecommons.org/licenses/by/4.0/)",
      "source": "https://sketchfab.com/3d-models/cc0-bicycle-stand-4-597656d383f94bca8fa098905a126ee1",
      "title": "CC0 - Bicycle Stand 4"
    },
    "generator": "Sketchfab-13.56.0",
    "version": "2.0"
  },
  "bufferViews": [
    {
      "buffer": 0,
      "byteLength": 89472,
      "name": "floatBufferViews",
      "target": 34963
    },
    {
      "buffer": 0,
      "byteLength": 104928,
      "byteOffset": 89472,
      "byteStride": 8,
      "name": "floatBufferViews",
      "target": 34962
    },
    {
      "buffer": 0,
      "byteLength": 104928,
      "byteOffset": 194400,
      "byteStride": 12,
      "name": "floatBufferViews",
      "target": 34962
    },
    {
      "buffer": 0,
      "byteLength": 69952,
      "byteOffset": 299328,
      "byteStride": 16,
      "name": "floatBufferViews",
      "target": 34962
    }
  ],
  "buffers": [
    {
      "byteLength": 369280,
      "uri": "scene.bin"
    }
  ],
  "images": [
    {
      "uri": "textures/BicycleStand4_baseColor.png"
    },
    {
      "uri": "textures/BicycleStand4_metallicRoughness.png"
    },
    {
      "uri": "textures/BicycleStand4_normal.png"
    }
  ],
  "materials": [
    {
      "name": "BicycleStand4",
      "normalTexture": {
        "index": 2
      },
      "occlusionTexture": {
        "index": 1
      },
      "pbrMetallicRoughness": {
        "baseColorTexture": {
          "index": 0
        },
        "metallicRoughnessTexture": {
          "index": 1
        }
      }
    }
  ],
  "meshes": [
    {
      "name": "BicacleStand4_BicycleStand4_0",
      "primitives": [
        {
          "attributes": {
            "NORMAL": 1,
            "POSITION": 0,
            "TANGENT": 2,
            "TEXCOORD_0": 3,
            "TEXCOORD_1": 4,
            "TEXCOORD_2": 5
          },
          "indices": 6,
          "material": 0,
          "mode": 4
        }
      ]
    }
  ],
  "nodes": [
    {
      "children": [
        1
      ],
      "matrix": [
        1.0,
        0.0,
        0.0,
        0.0,
        0.0,
        2.220446049250313e-16,
        -1.0,
        0.0,
        0.0,
        1.0,
        2.220446049250313e-16,
        0.0,
        0.0,
        0.0,
        0.0,
        1.0
      ],
      "name": "Sketchfab_model"
    },
    {
      "children": [
        2
      ],
      "matrix": [
        0.02539999969303608,
        0.0,
        0.0,
        0.0,
        0.0,
        0.0,
        0.02539999969303608,
        0.0,
        0.0,
        -0.02539999969303608,
        0.0,
        0.0,
        0.0,
        0.0,
        0.0,
        1.0
      ],
      "name": "982f3398255f440c84867f97790239f5.fbx"
    },
    {
      "children": [
        3
      ],
      "name": "RootNode"
    },
    {
      "children": [
        4
      ],
      "matrix": [
        1.0,
        0.0,
        0.0,
        0.0,
        0.0,
        2.220446049250313e-16,
        -1.0,
        0.0,
        0.0,
        1.0,
        2.220446049250313e-16,
        0.0,
        0.0,
        0.0,
        0.0,
        1.0
      ],
      "name": "BicacleStand4"
    },
    {
      "mesh": 0,
      "name": "BicacleStand4_BicycleStand4_0"
    }
  ],
  "samplers": [
    {
      "magFilter": 9729,
      "minFilter": 9987,
      "wrapS": 10497,
      "wrapT": 10497
    }
  ],
  "scene": 0,
  "scenes": [
    {
      "name": "Sketchfab_Scene",
      "nodes": [
        0
      ]
    }
  ],
  "textures": [
    {
      "sampler": 0,
      "source": 0
    },
    {
      "sampler": 0,
      "source": 1
    },
    {
      "sampler": 0,
      "source": 2
    }
  ]
}
